<svg width="136" height="20" viewBox="0 0 136 20" fill="none" xmlns="http://www.w3.org/2000/svg">
<path d="M56.0373 9.46388C57.0615 9.67972 57.8842 10.1861 58.5055 10.9831C59.1267 11.7634 59.4373 12.66 59.4373 13.6728C59.4373 15.1339 58.9168 16.2961 57.8758 17.1595C56.8516 18.0063 55.416 18.4296 53.5691 18.4296H45.3333V0.94639H53.292C55.0886 0.94639 56.4906 1.35317 57.498 2.16673C58.5223 2.98029 59.0344 4.08441 59.0344 5.47909C59.0344 6.50849 58.7573 7.36356 58.2032 8.04429C57.666 8.72503 56.944 9.19822 56.0373 9.46388ZM49.6401 8.01939H52.4609C53.1661 8.01939 53.7034 7.86996 54.0728 7.5711C54.459 7.25564 54.6521 6.79905 54.6521 6.20133C54.6521 5.60361 54.459 5.14702 54.0728 4.83156C53.7034 4.5161 53.1661 4.35837 52.4609 4.35837H49.6401V8.01939ZM52.8135 14.9928C53.5355 14.9928 54.0896 14.835 54.4758 14.5196C54.8787 14.1875 55.0802 13.7143 55.0802 13.1C55.0802 12.4857 54.8703 12.0042 54.4506 11.6555C54.0476 11.3068 53.4851 11.1325 52.7631 11.1325H49.6401V14.9928H52.8135Z" fill="#23272F"/>
<path d="M75.8126 4.5327V18.4296H71.5058V16.5369C71.0693 17.1512 70.4732 17.6493 69.7177 18.0312C68.9789 18.3964 68.1561 18.5791 67.2495 18.5791C66.1749 18.5791 65.2262 18.3466 64.4035 17.8817C63.5807 17.4002 62.9427 16.7112 62.4893 15.8146C62.036 14.9181 61.8093 13.8637 61.8093 12.6517V4.5327H66.0909V12.0789C66.0909 13.0087 66.3344 13.7309 66.8213 14.2456C67.3082 14.7603 67.963 15.0177 68.7858 15.0177C69.6253 15.0177 70.2885 14.7603 70.7755 14.2456C71.2624 13.7309 71.5058 13.0087 71.5058 12.0789V4.5327H75.8126Z" fill="#23272F"/>
<path d="M78.0498 11.4812C78.0498 10.0367 78.3436 8.77484 78.9313 7.69562C79.5358 6.61641 80.3669 5.78625 81.4247 5.20513C82.4993 4.62402 83.725 4.33346 85.1018 4.33346C86.8648 4.33346 88.334 4.79005 89.5093 5.70323C90.7014 6.61641 91.4822 7.90317 91.8516 9.56349H87.2678C86.8816 8.50088 86.1344 7.96958 85.0263 7.96958C84.2371 7.96958 83.6075 8.27674 83.1373 8.89106C82.6672 9.48878 82.4321 10.3521 82.4321 11.4812C82.4321 12.6102 82.6672 13.4819 83.1373 14.0962C83.6075 14.6939 84.2371 14.9928 85.0263 14.9928C86.1344 14.9928 86.8816 14.4615 87.2678 13.3989H91.8516C91.4822 15.026 90.7014 16.3044 89.5093 17.2342C88.3172 18.164 86.848 18.6289 85.1018 18.6289C83.725 18.6289 82.4993 18.3383 81.4247 17.7572C80.3669 17.1761 79.5358 16.3459 78.9313 15.2667C78.3436 14.1875 78.0498 12.9257 78.0498 11.4812Z" fill="#23272F"/>
<path d="M93.299 11.4563C93.299 10.0284 93.5676 8.77484 94.1049 7.69562C94.659 6.61641 95.4062 5.78625 96.3464 5.20513C97.2867 4.62402 98.3361 4.33346 99.4947 4.33346C100.485 4.33346 101.35 4.5327 102.089 4.93118C102.844 5.32966 103.424 5.85266 103.827 6.50019V4.5327H108.133V18.4296H103.827V16.4622C103.407 17.1097 102.819 17.6327 102.064 18.0312C101.325 18.4296 100.46 18.6289 99.4695 18.6289C98.3277 18.6289 97.2867 18.3383 96.3464 17.7572C95.4062 17.1595 94.659 16.321 94.1049 15.2418C93.5676 14.146 93.299 12.8842 93.299 11.4563ZM103.827 11.4812C103.827 10.4186 103.524 9.5801 102.92 8.96578C102.332 8.35145 101.61 8.04429 100.754 8.04429C99.8976 8.04429 99.1673 8.35145 98.5628 8.96578C97.9751 9.56349 97.6813 10.3937 97.6813 11.4563C97.6813 12.5189 97.9751 13.3656 98.5628 13.9966C99.1673 14.6109 99.8976 14.9181 100.754 14.9181C101.61 14.9181 102.332 14.6109 102.92 13.9966C103.524 13.3823 103.827 12.5438 103.827 11.4812Z" fill="#23272F"/>
<path d="M115.556 6.84886C116.06 6.08511 116.689 5.48739 117.445 5.0557C118.2 4.60741 119.04 4.38327 119.963 4.38327V8.89106H118.78C117.705 8.89106 116.899 9.12351 116.362 9.5884C115.825 10.0367 115.556 10.8336 115.556 11.9793V18.4296H111.249V4.5327H115.556V6.84886Z" fill="#23272F"/>
<path d="M121.166 11.4563C121.166 10.0284 121.434 8.77484 121.972 7.69562C122.526 6.61641 123.273 5.78625 124.213 5.20513C125.153 4.62402 126.203 4.33346 127.361 4.33346C128.285 4.33346 129.124 4.5244 129.88 4.90627C130.652 5.28815 131.257 5.80285 131.693 6.45038V3.08972e-06H136V18.4296H131.693V16.4373C131.29 17.1014 130.711 17.6327 129.955 18.0312C129.217 18.4296 128.352 18.6289 127.361 18.6289C126.203 18.6289 125.153 18.3383 124.213 17.7572C123.273 17.1595 122.526 16.321 121.972 15.2418C121.434 14.146 121.166 12.8842 121.166 11.4563ZM131.693 11.4812C131.693 10.4186 131.391 9.5801 130.787 8.96578C130.199 8.35145 129.477 8.04429 128.621 8.04429C127.764 8.04429 127.034 8.35145 126.429 8.96578C125.842 9.56349 125.548 10.3937 125.548 11.4563C125.548 12.5189 125.842 13.3656 126.429 13.9966C127.034 14.6109 127.764 14.9181 128.621 14.9181C129.477 14.9181 130.199 14.6109 130.787 13.9966C131.391 13.3823 131.693 12.5438 131.693 11.4812Z" fill="#23272F"/>
<path d="M4.86994 3.08972e-06H0V18.9989H4.86994V3.08972e-06Z" fill="#115EED"/>
<path d="M14.6097 4.6596H9.73978V18.9988H14.6097V4.6596Z" fill="#115EED"/>
<path d="M9.74013 14.2266H4.87019L4.86994 18.9989L9.73978 18.9988L9.74013 14.2266Z" fill="#115EED"/>
<path d="M9.74013 4.68194H4.87019V9.45425H9.74013V4.68194Z" fill="#115EED"/>
<path d="M29.22 18.9989H34.0899V0H29.22V18.9989Z" fill="#12DB63"/>
<path d="M19.4802 19H24.3501V4.66074H19.4802V19Z" fill="#12DB63"/>
<path d="M24.3501 19H29.2195V14.2277H24.3496L24.3501 19Z" fill="#12DB63"/>
<path d="M24.3496 9.45534H29.2195V4.68303H24.3496V9.45534Z" fill="#12DB63"/>
</svg>
