<svg width="1440" height="670" viewBox="0 0 1440 670" fill="none" xmlns="http://www.w3.org/2000/svg">
<g clip-path="url(#clip0_3465_35382)">
<rect width="1440" height="670" fill="white"/>
<rect x="-10.5645" y="-297" width="1795" height="1595" transform="rotate(9.79821 -10.5645 -297)" fill="#F3F7FF"/>
<rect x="-44.023" y="-100.325" width="299" height="199" rx="15.5" transform="rotate(9.79821 -44.023 -100.325)" fill="white" stroke="#F3F7FF"/>
<rect x="-77.8883" y="95.7721" width="299" height="199" rx="15.5" transform="rotate(9.79821 -77.8883 95.7721)" fill="white" stroke="#F3F7FF"/>
<rect x="-111.754" y="291.87" width="299" height="199" rx="15.5" transform="rotate(9.79821 -111.754 291.87)" fill="white" stroke="#F3F7FF"/>
<rect x="-145.62" y="487.967" width="299" height="199" rx="15.5" transform="rotate(9.79821 -145.62 487.967)" fill="white" stroke="#F3F7FF"/>
<rect x="579.12" y="-194.655" width="299" height="199" rx="15.5" transform="rotate(9.79821 579.12 -194.655)" fill="white" stroke="#F3F7FF"/>
<rect x="545.254" y="1.44205" width="299" height="199" rx="15.5" transform="rotate(9.79821 545.254 1.44205)" fill="white" stroke="#F3F7FF"/>
<rect x="511.389" y="197.539" width="299" height="199" rx="15.5" transform="rotate(9.79821 511.389 197.539)" fill="white" stroke="#F3F7FF"/>
<rect x="477.523" y="393.636" width="299" height="199" rx="15.5" transform="rotate(9.79821 477.523 393.636)" fill="white" stroke="#F3F7FF"/>
<rect x="443.658" y="589.734" width="299" height="199" rx="15.5" transform="rotate(9.79821 443.658 589.734)" fill="white" stroke="#F3F7FF"/>
<rect x="284.482" y="-245.539" width="299" height="199" rx="15.5" transform="rotate(9.79821 284.482 -245.539)" fill="white" stroke="#F3F7FF"/>
<rect x="250.616" y="-49.4412" width="299" height="199" rx="15.5" transform="rotate(9.79821 250.616 -49.4412)" fill="white" stroke="#F3F7FF"/>
<rect x="216.75" y="146.656" width="299" height="199" rx="15.5" transform="rotate(9.79821 216.75 146.656)" fill="white" stroke="#F3F7FF"/>
<rect x="182.884" y="342.753" width="299" height="199" rx="15.5" transform="rotate(9.79821 182.884 342.753)" fill="white" stroke="#F3F7FF"/>
<rect x="149.019" y="538.85" width="299" height="199" rx="15.5" transform="rotate(9.79821 149.019 538.85)" fill="white" stroke="#F3F7FF"/>
<rect x="873.758" y="-143.772" width="299" height="199" rx="15.5" transform="rotate(9.79821 873.758 -143.772)" fill="white" stroke="#F3F7FF"/>
<rect x="839.893" y="52.3254" width="299" height="199" rx="15.5" transform="rotate(9.79821 839.893 52.3254)" fill="white" stroke="#F3F7FF"/>
<rect x="806.028" y="248.423" width="299" height="199" rx="15.5" transform="rotate(9.79821 806.028 248.423)" fill="white" stroke="#F3F7FF"/>
<rect x="772.162" y="444.52" width="299" height="199" rx="15.5" transform="rotate(9.79821 772.162 444.52)" fill="white" stroke="#F3F7FF"/>
<rect x="738.296" y="640.617" width="299" height="199" rx="15.5" transform="rotate(9.79821 738.296 640.617)" fill="white" stroke="#F3F7FF"/>
<rect x="1168.4" y="-92.8885" width="299" height="199" rx="15.5" transform="rotate(9.79821 1168.4 -92.8885)" fill="white" stroke="#F3F7FF"/>
<rect x="1463.04" y="-42.0047" width="299" height="199" rx="15.5" transform="rotate(9.79821 1463.04 -42.0047)" fill="white" stroke="#F3F7FF"/>
<rect x="1134.53" y="103.209" width="299" height="199" rx="15.5" transform="rotate(9.79821 1134.53 103.209)" fill="white" stroke="#F3F7FF"/>
<rect x="1429.17" y="154.092" width="299" height="199" rx="15.5" transform="rotate(9.79821 1429.17 154.092)" fill="white" stroke="#F3F7FF"/>
<rect x="1100.67" y="299.306" width="299" height="199" rx="15.5" transform="rotate(9.79821 1100.67 299.306)" fill="white" stroke="#F3F7FF"/>
<rect x="1395.3" y="350.19" width="299" height="199" rx="15.5" transform="rotate(9.79821 1395.3 350.19)" fill="white" stroke="#F3F7FF"/>
<rect x="1066.8" y="495.403" width="299" height="199" rx="15.5" transform="rotate(9.79821 1066.8 495.403)" fill="white" stroke="#F3F7FF"/>
<rect x="1361.44" y="546.287" width="299" height="199" rx="15.5" transform="rotate(9.79821 1361.44 546.287)" fill="white" stroke="#F3F7FF"/>
</g>
<defs>
<clipPath id="clip0_3465_35382">
<rect width="1440" height="670" fill="white"/>
</clipPath>
</defs>
</svg>
