<svg width="124" height="56" viewBox="0 0 124 56" fill="none" xmlns="http://www.w3.org/2000/svg">
<g clip-path="url(#clip0_3465_36816)">
<path fill-rule="evenodd" clip-rule="evenodd" d="M93.1653 31.164H88.6568V25.2881H93.0174C94.4973 25.2881 95.6183 25.5243 96.3495 25.9896C97.0617 26.4433 97.4081 27.1603 97.4081 28.1818C97.4081 30.1885 96.0201 31.164 93.1653 31.164ZM88.6568 16.5966H92.0126C93.5711 16.5966 94.7403 16.7704 95.4877 17.1134C96.1932 17.4375 96.5361 18.0855 96.5361 19.0942C96.5361 19.5631 96.4215 19.9921 96.1914 20.3768C95.8988 20.9133 95.4883 21.2663 94.9376 21.4561C94.3655 21.6533 93.5354 21.7533 92.4708 21.7533H88.6568V16.5966ZM98.3187 23.2145C100.262 22.1758 101.246 20.599 101.246 18.5215C101.246 17.8737 101.137 17.2502 100.923 16.6682C100.71 16.0858 100.395 15.5469 99.9865 15.0652C99.5804 14.5856 99.1057 14.1834 98.5765 13.8696C97.9559 13.4961 97.2457 13.24 96.4651 13.1087C95.6992 12.9801 94.7831 12.9152 93.7412 12.9152H86.7222C85.7345 12.9152 85.0023 13.1452 84.5459 13.5987C84.0891 14.0524 83.8574 14.79 83.8574 15.7909V29.1881V31.9698V34.8457H86.7222H87.9756H93.3428C94.4896 34.8457 95.5079 34.7881 96.3688 34.6747C97.2392 34.561 98.0224 34.3608 98.7002 34.0794C99.7871 33.6053 100.663 32.8609 101.303 31.8666C101.942 30.8741 102.266 29.743 102.266 28.5052C102.266 25.9614 100.939 24.184 98.3187 23.2145Z" fill="#8F959C"/>
<path fill-rule="evenodd" clip-rule="evenodd" d="M69.7456 18.0135L69.7724 18.086L69.7988 18.0135L72.7043 26.0608H69.7724H66.8401L69.7456 18.0135ZM65.5485 29.7276H69.7724H73.9957L75.8871 34.8096H80.8558L79.4756 31.3428C79.4074 31.1652 79.3333 30.9758 79.2475 30.7647L73.1625 15.4058C72.9377 14.8343 72.6931 14.3514 72.4356 13.9703C72.169 13.5755 71.8143 13.2514 71.3807 13.0074C70.9442 12.762 70.4033 12.6375 69.7724 12.6375C69.1411 12.6375 68.6002 12.762 68.1638 13.0074C67.7304 13.2514 67.3755 13.5755 67.1088 13.9703C66.8513 14.3514 66.6069 14.8343 66.3819 15.4058L60.2971 30.7647C60.211 30.9758 60.1367 31.1652 60.0688 31.3428L58.6886 34.8096H63.6573L65.5485 29.7276Z" fill="#8F959C"/>
<path fill-rule="evenodd" clip-rule="evenodd" d="M114.483 31.164H109.974V25.2881H114.335C115.815 25.2881 116.936 25.5243 117.667 25.9896C118.38 26.4433 118.726 27.1603 118.726 28.1818C118.726 30.1885 117.338 31.164 114.483 31.164ZM109.974 16.5966H113.331C114.889 16.5966 116.058 16.7704 116.806 17.1134C117.511 17.4375 117.854 18.0855 117.854 19.0942C117.854 19.5631 117.739 19.9921 117.509 20.3768C117.216 20.9133 116.806 21.2663 116.256 21.4561C115.683 21.6533 114.853 21.7533 113.789 21.7533H109.974V16.5966ZM119.636 23.2145C121.579 22.1758 122.564 20.599 122.564 18.5215C122.564 17.8737 122.455 17.2502 122.241 16.6682C122.028 16.0858 121.712 15.5469 121.304 15.0652C120.899 14.5856 120.424 14.1834 119.894 13.8696C119.274 13.4961 118.564 13.24 117.783 13.1087C117.017 12.9801 116.101 12.9152 115.059 12.9152H108.04C107.052 12.9152 106.32 13.1452 105.864 13.5987C105.407 14.0524 105.175 14.79 105.175 15.7909V29.1881V31.9698V34.8457H108.04H109.294H114.66C115.808 34.8457 116.826 34.7881 117.687 34.6747C118.557 34.561 119.34 34.3608 120.018 34.0794C121.105 33.6053 121.981 32.8609 122.62 31.8666C123.26 30.8741 123.584 29.743 123.584 28.5052C123.584 25.9614 122.257 24.184 119.636 23.2145Z" fill="#8F959C"/>
<path fill-rule="evenodd" clip-rule="evenodd" d="M10.5043 27.9057C7.36919 22.8685 5.69113 16.9088 6.81865 10.8702C7.2035 8.81044 8.86688 7.21066 10.9497 6.88455C12.8134 6.59283 14.1603 6.44672 16.7999 6.66472C15.8487 8.2335 15.2858 9.79838 14.6941 11.3192C13.3757 11.2718 12.0327 11.5339 11.6072 11.6641C10.536 15.5982 11.9184 22.3336 16.0946 27.9057H10.5043Z" fill="#8F959C"/>
<path fill-rule="evenodd" clip-rule="evenodd" d="M15.615 15.6465C16.9828 9.88218 20.0381 4.489 25.133 1.01153C26.8709 -0.174891 29.1861 -0.137385 30.8908 1.0954C32.4161 2.1982 33.4726 3.04107 35.184 5.04978C33.3947 5.49075 31.883 6.20208 30.3822 6.86157C29.4838 5.90176 28.3476 5.14355 27.9539 4.93673C24.3967 6.96602 20.5805 12.6999 19.5681 19.574L15.615 15.6465Z" fill="#8F959C"/>
<path fill-rule="evenodd" clip-rule="evenodd" d="M27.9539 10.5684C33.0237 7.45351 39.0224 5.78627 45.1 6.90654C47.1732 7.2889 48.7835 8.94155 49.1118 11.011C49.4052 12.8626 49.5525 14.2009 49.3331 16.8235C47.7539 15.8782 46.1791 15.319 44.6481 14.7312C44.696 13.4213 44.4323 12.0869 44.3009 11.6642C40.3413 10.5999 33.5625 11.9734 27.9539 16.1226V10.5684Z" fill="#8F959C"/>
<path fill-rule="evenodd" clip-rule="evenodd" d="M40.2931 15.6464C46.0949 17.0055 51.523 20.041 55.0231 25.1031C56.2173 26.8298 56.1795 29.1299 54.9386 30.8238C53.8287 32.3391 52.9803 33.3888 50.9587 35.089C50.5148 33.3112 49.7988 31.8096 49.1351 30.3184C50.1012 29.4255 50.8642 28.297 51.0723 27.9057C49.0299 24.3715 43.2589 20.5799 36.34 19.5739L40.2931 15.6464Z" fill="#8F959C"/>
<path fill-rule="evenodd" clip-rule="evenodd" d="M45.4039 27.9054C48.5391 32.9424 50.2172 38.9022 49.0894 44.9409C48.7047 47.0007 47.0413 48.6006 44.9586 48.9268C43.0949 49.2183 41.7479 49.3643 39.1083 49.1463C40.0595 47.5776 40.6224 46.0127 41.2142 44.4919C42.5326 44.5395 43.8753 44.2774 44.3011 44.147C45.3722 40.2129 43.9899 33.4775 39.8135 27.9054H45.4039Z" fill="#8F959C"/>
<path fill-rule="evenodd" clip-rule="evenodd" d="M40.2929 40.1653C38.9249 45.9296 35.8698 51.3228 30.7747 54.8003C29.037 55.9865 26.7218 55.9492 25.017 54.7164C23.4918 53.6135 22.4353 52.7707 20.7239 50.7619C22.5132 50.3207 24.0248 49.6097 25.5257 48.9502C26.4241 49.9097 27.5602 50.6679 27.954 50.8748C31.5112 48.8454 35.3274 43.1119 36.3398 36.2376L40.2929 40.1653Z" fill="#8F959C"/>
<path fill-rule="evenodd" clip-rule="evenodd" d="M27.9539 45.2431C22.8841 48.358 16.8854 50.0254 10.8078 48.9048C8.73464 48.5226 7.12422 46.8698 6.79626 44.8004C6.50264 42.949 6.35557 41.6108 6.57474 38.9879C8.15397 39.9331 9.72901 40.4923 11.2597 41.0804C11.2118 42.3904 11.4758 43.7243 11.6068 44.1471C15.5664 45.2116 22.3455 43.838 27.9539 39.6888V45.2431Z" fill="#8F959C"/>
<path fill-rule="evenodd" clip-rule="evenodd" d="M15.6151 40.1653C9.81343 38.8062 4.38521 35.771 0.885161 30.7086C-0.308962 28.9819 -0.271211 26.6821 0.969575 24.9879C2.07955 23.4728 2.92788 22.423 4.94963 20.7227C5.39346 22.5002 6.10941 24.0022 6.7732 25.4933C5.80715 26.3859 5.04402 27.5147 4.83586 27.906C6.87832 31.4402 12.6494 35.2318 19.5682 36.238L15.6151 40.1653Z" fill="#8F959C"/>
<path fill-rule="evenodd" clip-rule="evenodd" d="M59.838 41.1719H60.853L60.3434 40.0003L59.838 41.1719ZM58.8148 42.3353L60.1116 39.3854H60.5917L61.8888 42.3353H61.3415L61.0424 41.628H59.6484L59.3454 42.3353H58.8148Z" fill="#8F959C"/>
<path fill-rule="evenodd" clip-rule="evenodd" d="M62.2343 42.3348V41.9876L63.5185 40.5397H62.2806V40.1259H64.1672V40.4731L62.8827 41.9204H64.1672V42.3348H62.2343Z" fill="#8F959C"/>
<path fill-rule="evenodd" clip-rule="evenodd" d="M66.1762 41.3855H65.0308C65.0473 41.5555 65.1049 41.6949 65.2032 41.8038C65.3015 41.9126 65.4322 41.9668 65.595 41.9668C65.7494 41.9668 65.8783 41.9139 65.9823 41.808C66.0863 41.7022 66.1506 41.5613 66.1762 41.3855ZM65.5401 40.0758C65.8657 40.0758 66.1376 40.1826 66.3552 40.396C66.5728 40.6096 66.6816 40.8832 66.6816 41.2181V41.2266C66.6816 41.5501 66.5787 41.8236 66.374 42.0466C66.1691 42.2698 65.9079 42.3812 65.5907 42.3812C65.2535 42.3812 64.992 42.2676 64.8054 42.0402C64.6186 41.8131 64.5253 41.5306 64.5253 41.193C64.5253 41.1652 64.5281 41.1177 64.5334 41.0508H66.1677C66.1394 40.872 66.0678 40.7342 65.9528 40.6367C65.8377 40.539 65.6974 40.4901 65.5318 40.4901C65.3129 40.4901 65.1106 40.5777 64.9254 40.7536L64.6263 40.4901C64.8592 40.2139 65.1639 40.0758 65.5401 40.0758Z" fill="#8F959C"/>
<path fill-rule="evenodd" clip-rule="evenodd" d="M67.1912 42.3354V40.1264H67.705V40.624C67.8622 40.2475 68.1247 40.0674 68.4924 40.0841V40.6199H68.4632C68.2298 40.6199 68.0453 40.6945 67.9092 40.8436C67.7729 40.9932 67.705 41.2098 67.705 41.4942V42.3354H67.1912Z" fill="#8F959C"/>
<path fill-rule="evenodd" clip-rule="evenodd" d="M69.6207 41.7428C69.747 41.8755 69.8998 41.9419 70.0796 41.9419C70.2594 41.9419 70.4103 41.8771 70.5324 41.7474C70.6543 41.6176 70.7156 41.4465 70.7156 41.2347V41.2265C70.7156 41.0171 70.6537 40.8471 70.5303 40.7158C70.4068 40.5848 70.2566 40.5192 70.0796 40.5192C69.8998 40.5192 69.747 40.5857 69.6207 40.7177C69.4945 40.8502 69.4311 41.0199 69.4311 41.2265V41.2347C69.4311 41.441 69.4945 41.6107 69.6207 41.7428ZM70.2019 42.3811C69.893 42.3811 69.6403 42.2514 69.4437 41.9919V42.335H68.9301V39.2808H69.4437V40.494C69.6403 40.2182 69.893 40.0798 70.2019 40.0798C70.4797 40.0798 70.7212 40.1832 70.9259 40.3896C71.1311 40.596 71.2334 40.8748 71.2334 41.2265V41.2347C71.2334 41.586 71.132 41.865 70.9283 42.0716C70.7246 42.2779 70.4826 42.3811 70.2019 42.3811Z" fill="#8F959C"/>
<path fill-rule="evenodd" clip-rule="evenodd" d="M72.5434 42.0127C72.7143 42.0127 72.8562 41.9689 72.9687 41.8809C73.0812 41.7931 73.1373 41.6796 73.1373 41.5402V41.3892C72.9857 41.3308 72.8171 41.3016 72.6318 41.3016C72.466 41.3016 72.3376 41.3337 72.2464 41.3977C72.1555 41.4621 72.1098 41.5524 72.1098 41.6699V41.678C72.1098 41.7812 72.1501 41.8629 72.2319 41.9228C72.313 41.9831 72.417 42.0127 72.5434 42.0127ZM72.4004 42.3809C72.1782 42.3809 71.991 42.3211 71.8382 42.2013C71.6851 42.0812 71.6085 41.9138 71.6085 41.6991V41.6908C71.6085 41.4564 71.6919 41.2792 71.8592 41.1594C72.026 41.0393 72.2501 40.9792 72.5305 40.9792C72.7356 40.9792 72.935 41.01 73.1286 41.0714V41.0169C73.1286 40.6961 72.9448 40.5359 72.5771 40.5359C72.3748 40.5359 72.163 40.582 71.9413 40.674L71.8023 40.2764C72.0858 40.1566 72.3664 40.0967 72.6447 40.0967C72.9755 40.0967 73.2214 40.1788 73.3813 40.3434C73.5414 40.5023 73.6215 40.7297 73.6215 41.0253V42.335H73.1246V42.0588C72.9448 42.2737 72.7034 42.3809 72.4004 42.3809Z" fill="#8F959C"/>
<path fill-rule="evenodd" clip-rule="evenodd" d="M75.1083 41.766L75.6894 40.1259H76.2198L75.3356 42.3935C75.2455 42.6222 75.1462 42.7834 75.0367 42.8768C74.9271 42.9704 74.7823 43.017 74.6028 43.017C74.4146 43.017 74.2392 42.9709 74.0761 42.8788L74.2491 42.5065C74.3558 42.5625 74.4555 42.5901 74.5481 42.5901C74.6238 42.5901 74.6852 42.5713 74.7312 42.5336C74.7775 42.496 74.8217 42.4312 74.8637 42.3391L73.9375 40.1259H74.4849L75.1083 41.766Z" fill="#8F959C"/>
<path fill-rule="evenodd" clip-rule="evenodd" d="M77.5589 42.3852C77.2304 42.3852 76.9568 42.2745 76.7375 42.0529C76.5186 41.831 76.4091 41.5611 76.4091 41.2431V41.2347C76.4091 40.9167 76.5192 40.6445 76.7399 40.4187C76.9601 40.1928 77.2362 40.0798 77.5673 40.0798C77.9183 40.0798 78.2143 40.207 78.456 40.4606L78.1359 40.7995C77.9586 40.6153 77.7681 40.5234 77.563 40.5234C77.3806 40.5234 77.2275 40.5916 77.1041 40.7283C76.9805 40.8651 76.919 41.031 76.919 41.2264V41.2347C76.919 41.4329 76.9811 41.6002 77.1061 41.7369C77.2309 41.8734 77.3903 41.9419 77.5843 41.9419C77.7862 41.9419 77.9786 41.8513 78.161 41.6699L78.4685 41.9711C78.3478 42.1049 78.2171 42.2073 78.0769 42.2787C77.9364 42.3498 77.7636 42.3852 77.5589 42.3852Z" fill="#8F959C"/>
<path fill-rule="evenodd" clip-rule="evenodd" d="M79.719 42.0127C79.8902 42.0127 80.0321 41.9689 80.1444 41.8809C80.2569 41.7931 80.313 41.6796 80.313 41.5402V41.3892C80.1613 41.3308 79.993 41.3016 79.8076 41.3016C79.6419 41.3016 79.5135 41.3337 79.4223 41.3977C79.3311 41.4621 79.2854 41.5524 79.2854 41.6699V41.678C79.2854 41.7812 79.326 41.8629 79.4075 41.9228C79.4889 41.9831 79.5929 42.0127 79.719 42.0127ZM79.576 42.3809C79.3541 42.3809 79.1669 42.3211 79.0138 42.2013C78.8607 42.0812 78.7844 41.9138 78.7844 41.6991V41.6908C78.7844 41.4564 78.8678 41.2792 79.0348 41.1594C79.2017 41.0393 79.4257 40.9792 79.7065 40.9792C79.9115 40.9792 80.1106 41.01 80.3045 41.0714V41.0169C80.3045 40.6961 80.1207 40.5359 79.7528 40.5359C79.5507 40.5359 79.3386 40.582 79.1169 40.674L78.978 40.2764C79.2615 40.1566 79.5423 40.0967 79.8203 40.0967C80.1514 40.0967 80.3972 40.1788 80.5572 40.3434C80.7173 40.5023 80.7971 40.7297 80.7971 41.0253V42.335H80.3005V42.0588C80.1207 42.2737 79.8792 42.3809 79.576 42.3809Z" fill="#8F959C"/>
<path fill-rule="evenodd" clip-rule="evenodd" d="M81.4038 42.335V40.1259H81.9177V40.4646C82.1031 40.208 82.3345 40.0798 82.6124 40.0798C82.8623 40.0798 83.0567 40.1558 83.1957 40.3078C83.3347 40.4598 83.404 40.6656 83.404 40.9251V42.335H82.8948V41.0797C82.8948 40.9068 82.853 40.7737 82.7705 40.6799C82.6874 40.5867 82.5701 40.5399 82.4187 40.5399C82.2671 40.5399 82.1457 40.5888 82.0542 40.6865C81.9633 40.784 81.9177 40.918 81.9177 41.0881V42.335H81.4038Z" fill="#8F959C"/>
<path fill-rule="evenodd" clip-rule="evenodd" d="M87.7837 41.4771V41.4689C87.7837 41.2066 87.5816 41.0756 87.1775 41.0756H86.3561V41.8789H87.2151C87.3951 41.8789 87.5344 41.8447 87.6343 41.7762C87.734 41.7079 87.7837 41.6082 87.7837 41.4771ZM87.6194 40.2428V40.2345C87.6194 40.1172 87.5752 40.0262 87.4867 39.9604C87.3982 39.8951 87.27 39.862 87.1014 39.862H86.3561V40.6402H87.0636C87.2377 40.6402 87.3738 40.6066 87.4721 40.5397C87.5704 40.4731 87.6194 40.3741 87.6194 40.2428ZM85.8465 42.3348V39.4059H87.1688C87.5083 39.4059 87.7654 39.4924 87.9395 39.6654C88.0713 39.7967 88.1374 39.9584 88.1374 40.1507V40.1589C88.1374 40.4494 87.9969 40.6669 87.7161 40.8116C87.9073 40.8788 88.0525 40.9667 88.152 41.0756C88.2517 41.1842 88.3017 41.3335 88.3017 41.5233V41.5317C88.3017 41.7881 88.2036 41.9862 88.0069 42.1254C87.8105 42.2651 87.5449 42.3348 87.2107 42.3348H85.8465Z" fill="#8F959C"/>
<path fill-rule="evenodd" clip-rule="evenodd" d="M89.2114 41.0755H90.3525C90.3356 40.9055 90.2781 40.7659 90.1798 40.6573C90.0814 40.5484 89.9508 40.4939 89.7881 40.4939C89.6311 40.4939 89.501 40.5471 89.3987 40.6529C89.296 40.7588 89.2337 40.8997 89.2114 41.0755ZM89.847 42.3849C89.5214 42.3849 89.2496 42.2784 89.032 42.0651C88.8144 41.8514 88.7059 41.5762 88.7059 41.2387V41.2303C88.7059 40.9068 88.8084 40.634 89.0134 40.4124C89.2182 40.1907 89.478 40.0798 89.7926 40.0798C90.1294 40.0798 90.391 40.1934 90.5779 40.4205C90.7646 40.6479 90.8576 40.9305 90.8576 41.2679C90.8576 41.2959 90.855 41.343 90.8495 41.4102H89.2155C89.2436 41.589 89.3152 41.7268 89.4302 41.8245C89.5453 41.922 89.6869 41.9711 89.8554 41.9711C90.0717 41.9711 90.2725 41.883 90.4579 41.7075L90.7569 41.9711C90.5208 42.2471 90.2177 42.3849 89.847 42.3849Z" fill="#8F959C"/>
<path fill-rule="evenodd" clip-rule="evenodd" d="M92.2265 41.766L92.8077 40.1259H93.3384L92.454 42.3935C92.3641 42.6222 92.2644 42.7834 92.1552 42.8768C92.0457 42.9704 91.9008 43.017 91.721 43.017C91.5331 43.017 91.3576 42.9709 91.1946 42.8788L91.3676 42.5065C91.4741 42.5625 91.574 42.5901 91.6666 42.5901C91.7423 42.5901 91.8034 42.5713 91.8498 42.5336C91.8958 42.496 91.9403 42.4312 91.9822 42.3391L91.0557 40.1259H91.6034L92.2265 41.766Z" fill="#8F959C"/>
<path fill-rule="evenodd" clip-rule="evenodd" d="M93.7719 42.335V40.1259H94.2858V40.4646C94.4712 40.208 94.7029 40.0798 94.9805 40.0798C95.2304 40.0798 95.4249 40.1558 95.5639 40.3078C95.7028 40.4598 95.7724 40.6656 95.7724 40.9251V42.335H95.2629V41.0797C95.2629 40.9068 95.2212 40.7737 95.1386 40.6799C95.0555 40.5867 94.9384 40.5399 94.7868 40.5399C94.6353 40.5399 94.5138 40.5888 94.4226 40.6865C94.3314 40.784 94.2858 40.918 94.2858 41.0881V42.335H93.7719Z" fill="#8F959C"/>
<path fill-rule="evenodd" clip-rule="evenodd" d="M97.9117 41.3855H96.7663C96.7829 41.5555 96.8404 41.6949 96.9388 41.8038C97.0371 41.9126 97.1677 41.9668 97.3305 41.9668C97.485 41.9668 97.6138 41.9139 97.7179 41.808C97.8218 41.7022 97.8862 41.5613 97.9117 41.3855ZM97.2756 40.0758C97.6013 40.0758 97.8732 40.1826 98.0908 40.396C98.3081 40.6096 98.4172 40.8832 98.4172 41.2181V41.2266C98.4172 41.5501 98.3143 41.8236 98.1095 42.0466C97.9046 42.2698 97.6435 42.3812 97.3263 42.3812C96.9891 42.3812 96.7275 42.2676 96.5409 42.0402C96.3542 41.8131 96.2609 41.5306 96.2609 41.193C96.2609 41.1652 96.2636 41.1177 96.2693 41.0508H97.9033C97.875 40.872 97.8037 40.7342 97.6884 40.6367C97.5732 40.539 97.433 40.4901 97.2674 40.4901C97.0484 40.4901 96.8462 40.5777 96.6609 40.7536L96.3619 40.4901C96.5951 40.2139 96.8995 40.0758 97.2756 40.0758Z" fill="#8F959C"/>
<path fill-rule="evenodd" clip-rule="evenodd" d="M98.956 42.3353H99.4697V39.2808H98.956V42.3353Z" fill="#8F959C"/>
<path fill-rule="evenodd" clip-rule="evenodd" d="M100.527 40.1259L101.036 40.8664L101.554 40.1259H102.097L101.314 41.2055L102.131 42.3348H101.575L101.028 41.5483L100.484 42.3348H99.9412L100.754 41.2094L99.9706 40.1259H100.527Z" fill="#8F959C"/>
<path fill-rule="evenodd" clip-rule="evenodd" d="M103.298 42.0127C103.469 42.0127 103.611 41.9689 103.723 41.8809C103.835 41.7931 103.892 41.6796 103.892 41.5402V41.3892C103.74 41.3308 103.571 41.3016 103.386 41.3016C103.22 41.3016 103.092 41.3337 103.001 41.3977C102.91 41.4621 102.864 41.5524 102.864 41.6699V41.678C102.864 41.7812 102.905 41.8629 102.986 41.9228C103.067 41.9831 103.172 42.0127 103.298 42.0127ZM103.155 42.3809C102.932 42.3809 102.745 42.3211 102.592 42.2013C102.439 42.0812 102.363 41.9138 102.363 41.6991V41.6908C102.363 41.4564 102.446 41.2792 102.613 41.1594C102.78 41.0393 103.004 40.9792 103.285 40.9792C103.49 40.9792 103.689 41.01 103.883 41.0714V41.0169C103.883 40.6961 103.699 40.5359 103.331 40.5359C103.129 40.5359 102.917 40.582 102.695 40.674L102.557 40.2764C102.84 40.1566 103.121 40.0967 103.399 40.0967C103.73 40.0967 103.976 40.1788 104.136 40.3434C104.296 40.5023 104.376 40.7297 104.376 41.0253V42.335H103.879V42.0588C103.699 42.2737 103.458 42.3809 103.155 42.3809Z" fill="#8F959C"/>
<path fill-rule="evenodd" clip-rule="evenodd" d="M105.012 42.3353H105.525V39.2808H105.012V42.3353Z" fill="#8F959C"/>
<path fill-rule="evenodd" clip-rule="evenodd" d="M107.231 41.9416C107.408 41.9416 107.56 41.8752 107.686 41.7427C107.812 41.6106 107.875 41.4407 107.875 41.2344V41.2262C107.875 41.0195 107.812 40.8502 107.686 40.7177C107.56 40.5854 107.408 40.5189 107.231 40.5189C107.051 40.5189 106.899 40.5838 106.776 40.7135C106.652 40.8433 106.591 41.0141 106.591 41.2262V41.2344C106.591 41.4437 106.652 41.6137 106.776 41.745C106.899 41.876 107.051 41.9416 107.231 41.9416ZM107.867 43.0043V41.9667C107.67 42.2427 107.418 42.3811 107.109 42.3811C106.831 42.3811 106.59 42.2776 106.384 42.0713C106.18 41.8648 106.077 41.586 106.077 41.2344V41.2262C106.077 40.8745 106.179 40.5959 106.382 40.3892C106.586 40.1829 106.828 40.0798 107.109 40.0798C107.421 40.0798 107.673 40.2095 107.867 40.469V40.1256H108.376V43.0043H107.867Z" fill="#8F959C"/>
<path fill-rule="evenodd" clip-rule="evenodd" d="M112.697 41.4771V41.4689C112.697 41.2066 112.495 41.0756 112.091 41.0756H111.269V41.8789H112.128C112.308 41.8789 112.448 41.8447 112.547 41.7762C112.647 41.7079 112.697 41.6082 112.697 41.4771ZM112.533 40.2428V40.2345C112.533 40.1172 112.488 40.0262 112.4 39.9604C112.311 39.8951 112.183 39.862 112.015 39.862H111.269V40.6402H111.977C112.151 40.6402 112.287 40.6066 112.385 40.5397C112.484 40.4731 112.533 40.3741 112.533 40.2428ZM110.76 42.3348V39.4059H112.082C112.422 39.4059 112.679 39.4924 112.853 39.6654C112.985 39.7967 113.051 39.9584 113.051 40.1507V40.1589C113.051 40.4494 112.91 40.6669 112.629 40.8116C112.821 40.8788 112.966 40.9667 113.065 41.0756C113.165 41.1842 113.215 41.3335 113.215 41.5233V41.5317C113.215 41.7881 113.117 41.9862 112.92 42.1254C112.724 42.2651 112.458 42.3348 112.124 42.3348H110.76Z" fill="#8F959C"/>
<path fill-rule="evenodd" clip-rule="evenodd" d="M114.524 42.0127C114.696 42.0127 114.837 41.9689 114.95 41.8809C115.062 41.7931 115.118 41.6796 115.118 41.5402V41.3892C114.967 41.3308 114.798 41.3016 114.613 41.3016C114.447 41.3016 114.319 41.3337 114.228 41.3977C114.137 41.4621 114.091 41.5524 114.091 41.6699V41.678C114.091 41.7812 114.132 41.8629 114.213 41.9228C114.294 41.9831 114.398 42.0127 114.524 42.0127ZM114.381 42.3809C114.159 42.3809 113.972 42.3211 113.819 42.2013C113.666 42.0812 113.59 41.9138 113.59 41.6991V41.6908C113.59 41.4564 113.673 41.2792 113.84 41.1594C114.007 41.0393 114.231 40.9792 114.512 40.9792C114.717 40.9792 114.916 41.01 115.11 41.0714V41.0169C115.11 40.6961 114.926 40.5359 114.558 40.5359C114.356 40.5359 114.144 40.582 113.922 40.674L113.783 40.2764C114.067 40.1566 114.347 40.0967 114.626 40.0967C114.957 40.0967 115.203 40.1788 115.363 40.3434C115.523 40.5023 115.602 40.7297 115.602 41.0253V42.335H115.106V42.0588C114.926 42.2737 114.685 42.3809 114.381 42.3809Z" fill="#8F959C"/>
<path fill-rule="evenodd" clip-rule="evenodd" d="M116.209 42.335V40.1259H116.723V40.4646C116.908 40.208 117.14 40.0798 117.418 40.0798C117.667 40.0798 117.862 40.1558 118.001 40.3078C118.14 40.4598 118.209 40.6656 118.209 40.9251V42.335H117.7V41.0797C117.7 40.9068 117.658 40.7737 117.575 40.6799C117.493 40.5867 117.375 40.5399 117.224 40.5399C117.072 40.5399 116.951 40.5888 116.859 40.6865C116.768 40.784 116.723 40.918 116.723 41.0881V42.335H116.209Z" fill="#8F959C"/>
<path fill-rule="evenodd" clip-rule="evenodd" d="M118.82 42.3353V39.2808H119.334V41.105L120.256 40.1262H120.875L119.991 41.0256L120.905 42.3353H120.307L119.65 41.3769L119.334 41.7033V42.3353H118.82Z" fill="#8F959C"/>
<path fill-rule="evenodd" clip-rule="evenodd" d="M121.3 42.3348H121.814V40.1259H121.3V42.3348Z" fill="#8F959C"/>
</g>
<defs>
<clipPath id="clip0_3465_36816">
<rect width="124" height="56" fill="white"/>
</clipPath>
</defs>
</svg>
