<svg width="20" height="20" viewBox="0 0 20 20" fill="none" xmlns="http://www.w3.org/2000/svg">
<path fill-rule="evenodd" clip-rule="evenodd" d="M9.16659 6.66699C9.16659 6.20699 9.53993 5.83366 9.99993 5.83366C10.4599 5.83366 10.8333 6.20699 10.8333 6.66699V10.8337C10.8333 11.2937 10.4599 11.667 9.99993 11.667C9.53993 11.667 9.16659 11.2937 9.16659 10.8337V6.66699ZM9.16659 13.3337C9.16659 12.8737 9.53993 12.5003 9.99993 12.5003C10.4599 12.5003 10.8333 12.8737 10.8333 13.3337C10.8333 13.7937 10.4599 14.167 9.99993 14.167C9.53993 14.167 9.16659 13.7937 9.16659 13.3337ZM9.99985 16.667C6.32401 16.667 3.33318 13.6762 3.33318 10.0003C3.33318 6.32449 6.32401 3.33366 9.99985 3.33366C13.6757 3.33366 16.6665 6.32449 16.6665 10.0003C16.6665 13.6762 13.6757 16.667 9.99985 16.667ZM9.99993 1.66699C5.39743 1.66699 1.6666 5.39783 1.6666 10.0003C1.6666 14.6028 5.39743 18.3337 9.99993 18.3337C14.6024 18.3337 18.3333 14.6028 18.3333 10.0003C18.3333 5.39783 14.6024 1.66699 9.99993 1.66699Z" fill="#23272F"/>
<mask id="mask0_3664_19036" style="mask-type:luminance" maskUnits="userSpaceOnUse" x="1" y="1" width="18" height="18">
<path fill-rule="evenodd" clip-rule="evenodd" d="M9.16659 6.66699C9.16659 6.20699 9.53993 5.83366 9.99993 5.83366C10.4599 5.83366 10.8333 6.20699 10.8333 6.66699V10.8337C10.8333 11.2937 10.4599 11.667 9.99993 11.667C9.53993 11.667 9.16659 11.2937 9.16659 10.8337V6.66699ZM9.16659 13.3337C9.16659 12.8737 9.53993 12.5003 9.99993 12.5003C10.4599 12.5003 10.8333 12.8737 10.8333 13.3337C10.8333 13.7937 10.4599 14.167 9.99993 14.167C9.53993 14.167 9.16659 13.7937 9.16659 13.3337ZM9.99985 16.667C6.32401 16.667 3.33318 13.6762 3.33318 10.0003C3.33318 6.32449 6.32401 3.33366 9.99985 3.33366C13.6757 3.33366 16.6665 6.32449 16.6665 10.0003C16.6665 13.6762 13.6757 16.667 9.99985 16.667ZM9.99993 1.66699C5.39743 1.66699 1.6666 5.39783 1.6666 10.0003C1.6666 14.6028 5.39743 18.3337 9.99993 18.3337C14.6024 18.3337 18.3333 14.6028 18.3333 10.0003C18.3333 5.39783 14.6024 1.66699 9.99993 1.66699Z" fill="white"/>
</mask>
<g mask="url(#mask0_3664_19036)">
<rect width="20" height="20" fill="#ED4611"/>
</g>
</svg>
