<svg width="46" height="56" viewBox="0 0 46 56" fill="none" xmlns="http://www.w3.org/2000/svg">
<g clip-path="url(#clip0_3465_36814)">
<path d="M38.3515 53.7599C35.3905 56.7055 32.1235 56.2463 29.0095 54.8575C25.6988 53.4407 22.6722 53.3511 19.1758 54.8575C14.8216 56.7839 12.5107 56.2239 9.88835 53.7599C-4.91687 38.1359 -2.73159 14.336 14.095 13.44C18.176 13.664 21.0332 15.7528 23.437 15.9264C27.01 15.1816 30.4299 13.048 34.2541 13.328C38.8487 13.7088 42.285 15.568 44.5795 18.9112C35.1282 24.7351 37.3681 37.5031 46.0491 41.0871C44.3118 45.7631 42.0829 50.3831 38.3461 53.7991L38.3515 53.7599ZM23.1092 13.272C22.6667 6.32796 28.1572 0.615969 34.4727 0.0559692C35.3413 8.06396 27.3705 14.056 23.1092 13.272Z" fill="#8F959C"/>
</g>
<defs>
<clipPath id="clip0_3465_36814">
<rect width="46" height="56" fill="white"/>
</clipPath>
</defs>
</svg>
