<svg width="56" height="56" viewBox="0 0 56 56" fill="none" xmlns="http://www.w3.org/2000/svg">
<rect width="56" height="56" rx="2" fill="#FAE9C9"/>
<path fill-rule="evenodd" clip-rule="evenodd" d="M36 34C36 34.551 35.551 35 35 35H33V25H35C35.551 25 36 25.449 36 26V34ZM20 34V26C20 25.449 20.449 25 21 25H23V35H21C20.449 35 20 34.551 20 34ZM26 21.5C26 21.224 26.224 21 26.5 21H29.5C29.776 21 30 21.224 30 21.5V23H26V21.5ZM25 35H31V25H25V35ZM35 23H32V21.5C32 20.122 30.878 19 29.5 19H26.5C25.122 19 24 20.122 24 21.5V23H21C19.346 23 18 24.346 18 26V34C18 35.654 19.346 37 21 37H35C36.654 37 38 35.654 38 34V26C38 24.346 36.654 23 35 23Z" fill="#FFA700"/>
<mask id="mask0_3465_36871" style="mask-type:luminance" maskUnits="userSpaceOnUse" x="18" y="19" width="20" height="18">
<path fill-rule="evenodd" clip-rule="evenodd" d="M36 34C36 34.551 35.551 35 35 35H33V25H35C35.551 25 36 25.449 36 26V34ZM20 34V26C20 25.449 20.449 25 21 25H23V35H21C20.449 35 20 34.551 20 34ZM26 21.5C26 21.224 26.224 21 26.5 21H29.5C29.776 21 30 21.224 30 21.5V23H26V21.5ZM25 35H31V25H25V35ZM35 23H32V21.5C32 20.122 30.878 19 29.5 19H26.5C25.122 19 24 20.122 24 21.5V23H21C19.346 23 18 24.346 18 26V34C18 35.654 19.346 37 21 37H35C36.654 37 38 35.654 38 34V26C38 24.346 36.654 23 35 23Z" fill="white"/>
</mask>
<g mask="url(#mask0_3465_36871)">
<rect x="16" y="16" width="24" height="24" fill="#FFA700"/>
</g>
</svg>
