<svg width="20" height="20" viewBox="0 0 20 20" fill="none" xmlns="http://www.w3.org/2000/svg">
<mask id="mask0_3817_27622" style="mask-type:alpha" maskUnits="userSpaceOnUse" x="0" y="0" width="20" height="20">
<rect width="20" height="20" fill="#D9D9D9"/>
</mask>
<g mask="url(#mask0_3817_27622)">
<path d="M0.833496 16.6663V14.333C0.833496 13.8608 0.955163 13.4266 1.1985 13.0305C1.44127 12.635 1.76405 12.333 2.16683 12.1247C3.02794 11.6941 3.90294 11.3711 4.79183 11.1555C5.68072 10.9405 6.5835 10.833 7.50016 10.833C8.41683 10.833 9.31961 10.9405 10.2085 11.1555C11.0974 11.3711 11.9724 11.6941 12.8335 12.1247C13.2363 12.333 13.5591 12.635 13.8018 13.0305C14.0452 13.4266 14.1668 13.8608 14.1668 14.333V16.6663H0.833496ZM15.8335 16.6663V14.1663C15.8335 13.5552 15.6635 12.9683 15.3235 12.4055C14.9829 11.8433 14.5002 11.3608 13.8752 10.958C14.5835 11.0413 15.2502 11.1836 15.8752 11.3847C16.5002 11.5863 17.0835 11.833 17.6252 12.1247C18.1252 12.4025 18.5071 12.7113 18.771 13.0513C19.0349 13.3919 19.1668 13.7636 19.1668 14.1663V16.6663H15.8335ZM7.50016 9.99967C6.5835 9.99967 5.79877 9.67329 5.146 9.02051C4.49322 8.36773 4.16683 7.58301 4.16683 6.66634C4.16683 5.74967 4.49322 4.96495 5.146 4.31217C5.79877 3.6594 6.5835 3.33301 7.50016 3.33301C8.41683 3.33301 9.20155 3.6594 9.85433 4.31217C10.5071 4.96495 10.8335 5.74967 10.8335 6.66634C10.8335 7.58301 10.5071 8.36773 9.85433 9.02051C9.20155 9.67329 8.41683 9.99967 7.50016 9.99967ZM15.8335 6.66634C15.8335 7.58301 15.5071 8.36773 14.8543 9.02051C14.2016 9.67329 13.4168 9.99967 12.5002 9.99967C12.3474 9.99967 12.1529 9.98245 11.9168 9.94801C11.6807 9.91301 11.4863 9.87467 11.3335 9.83301C11.7085 9.38856 11.9966 8.89551 12.1977 8.35384C12.3993 7.81217 12.5002 7.24967 12.5002 6.66634C12.5002 6.08301 12.3993 5.52051 12.1977 4.97884C11.9966 4.43717 11.7085 3.94412 11.3335 3.49967C11.5279 3.43023 11.7224 3.38495 11.9168 3.36384C12.1113 3.34329 12.3057 3.33301 12.5002 3.33301C13.4168 3.33301 14.2016 3.6594 14.8543 4.31217C15.5071 4.96495 15.8335 5.74967 15.8335 6.66634ZM2.50016 14.9997H12.5002V14.333C12.5002 14.1802 12.4621 14.0413 12.386 13.9163C12.3093 13.7913 12.2085 13.6941 12.0835 13.6247C11.3335 13.2497 10.5766 12.9683 9.81266 12.7805C9.04877 12.5933 8.27794 12.4997 7.50016 12.4997C6.72239 12.4997 5.95155 12.5933 5.18766 12.7805C4.42377 12.9683 3.66683 13.2497 2.91683 13.6247C2.79183 13.6941 2.69127 13.7913 2.61516 13.9163C2.5385 14.0413 2.50016 14.1802 2.50016 14.333V14.9997ZM7.50016 8.33301C7.9585 8.33301 8.351 8.16967 8.67766 7.84301C9.00377 7.5169 9.16683 7.12467 9.16683 6.66634C9.16683 6.20801 9.00377 5.81579 8.67766 5.48967C8.351 5.16301 7.9585 4.99967 7.50016 4.99967C7.04183 4.99967 6.64961 5.16301 6.3235 5.48967C5.99683 5.81579 5.8335 6.20801 5.8335 6.66634C5.8335 7.12467 5.99683 7.5169 6.3235 7.84301C6.64961 8.16967 7.04183 8.33301 7.50016 8.33301Z" fill="#B9C5CF"/>
</g>
</svg>
