<svg width="24" height="24" viewBox="0 0 24 24" fill="none" xmlns="http://www.w3.org/2000/svg">
<path d="M5 10.0004H7C9 10.0004 10 9.0004 10 7.0004V5.0004C10 3.0004 9 2.0004 7 2.0004H5C3 2.0004 2 3.0004 2 5.0004V7.0004C2 9.0004 3 10.0004 5 10.0004Z" stroke="#292D32" stroke-width="1.5" stroke-miterlimit="10" stroke-linecap="round" stroke-linejoin="round"/>
<path d="M17 10.0004H19C21 10.0004 22 9.0004 22 7.0004V5.0004C22 3.0004 21 2.0004 19 2.0004H17C15 2.0004 14 3.0004 14 5.0004V7.0004C14 9.0004 15 10.0004 17 10.0004Z" stroke="#292D32" stroke-width="1.5" stroke-miterlimit="10" stroke-linecap="round" stroke-linejoin="round"/>
<path d="M17 22.0004H19C21 22.0004 22 21.0004 22 19.0004V17.0004C22 15.0004 21 14.0004 19 14.0004H17C15 14.0004 14 15.0004 14 17.0004V19.0004C14 21.0004 15 22.0004 17 22.0004Z" stroke="#292D32" stroke-width="1.5" stroke-miterlimit="10" stroke-linecap="round" stroke-linejoin="round"/>
<path d="M5 22.0004H7C9 22.0004 10 21.0004 10 19.0004V17.0004C10 15.0004 9 14.0004 7 14.0004H5C3 14.0004 2 15.0004 2 17.0004V19.0004C2 21.0004 3 22.0004 5 22.0004Z" stroke="#292D32" stroke-width="1.5" stroke-miterlimit="10" stroke-linecap="round" stroke-linejoin="round"/>
</svg>
