<svg width="99" height="56" viewBox="0 0 99 56" fill="none" xmlns="http://www.w3.org/2000/svg">
<g clip-path="url(#clip0_3465_36809)">
<path d="M38.5282 39.8353C30.9752 43.2434 24.3429 38.5908 16.3929 39.4016C17.4488 37.0082 18.6007 33.9599 19.9534 29.9924C21.6987 24.8109 22.1656 21.3724 19.517 21.3724C17.3048 21.3724 14.8308 24.9106 12.7888 29.4027C13.5476 26.6726 14.5298 24.0086 15.7253 21.4374C16.1616 20.0932 12.623 19.768 12.5924 19.8981C11.8332 23.3409 10.1489 28.258 9.19335 32.0911C9.03627 32.7198 8.90539 33.2835 8.7963 33.8038C7.11641 36.0022 5.13109 37.1903 4.07516 36.9908C3.01923 36.7913 2.51744 35.2867 2.76615 32.98C6.61026 30.2656 10.1838 25.3702 10.5809 23.3193C10.834 21.9317 9.24572 20.7957 8.80066 20.3534C7.40439 18.9659 2.57416 24.013 0.636836 30.3263C-0.672169 34.5236 -0.0612979 38.6298 2.76615 38.6298C4.6773 38.6298 6.8197 37.0992 8.56068 35.0353C8.10253 37.9577 8.73085 38.7209 10.5416 38.387C10.5911 37.7993 10.7007 37.2182 10.8689 36.6526C13.5742 28.0325 16.8074 23.3756 18.4567 23.3756C19.613 23.3756 18.688 25.3399 17.1696 29.9968C15.8169 34.1941 14.7305 37.4027 13.836 39.7962C10.5024 40.4856 7.832 41.7301 6.28301 43.8287C4.83001 45.8624 5.88594 48.0564 9.33735 47.4667C11.615 47.0764 13.5262 45.5675 15.9347 40.4206C21.4107 40.0607 29.0248 45.4374 37.7515 43.109C39.9593 42.5496 38.7725 39.6965 38.5107 39.8309L38.5282 39.8353ZM3.30283 30.3306C4.35004 26.6363 7.22985 20.7913 8.53885 21.4591C9.55551 21.9968 6.72806 28.9431 2.8665 32.0997C2.9646 31.5019 3.1016 30.9109 3.27666 30.3306H3.30283ZM9.94822 46.374C8.23342 46.8683 6.81534 45.6542 8.06762 43.9458C9.15845 42.4065 11.122 41.4222 13.4127 40.8629C11.9641 44.5659 10.9736 46.0661 9.94822 46.3697" fill="#8F959C"/>
<path d="M65.376 38.7252C65.376 38.7252 65.4459 38.5517 65.8997 36.4791C68.6791 27.6336 72.0083 22.8986 73.7231 22.8986C74.9405 22.8986 73.9326 24.9409 72.4141 29.8796C70.7473 35.0829 71.5109 37.9317 72.6236 38.3826C73.457 38.7295 74.5347 38.1745 75.8219 36.7956C76.1802 36.3973 76.5152 35.9789 76.8255 35.5425C76.9302 37.0558 77.4189 37.962 78.0778 38.2309C78.9155 38.5734 80.1983 38.0227 81.311 36.4661C81.647 36.0108 82.0266 35.4254 82.4237 34.7881C81.9611 37.5891 82.5371 38.3219 84.2301 38.0097C84.2776 37.4661 84.38 36.9287 84.5355 36.4054C87.0313 28.4401 90.0202 24.1387 91.543 24.1387C92.6077 24.1387 91.7263 25.9252 90.3562 30.2569C88.925 34.8314 88.6501 38.7945 89.5926 39.2802C90.3257 39.6748 91.2987 39.1891 92.455 37.8883C93.7334 36.4661 95.4744 33.678 96.382 32.0433C96.6229 31.6679 96.7723 31.2418 96.8183 30.7989C96.8183 30.2569 96.6656 30.3653 96.0897 31.4059C95.0861 33.3441 92.8302 36.7046 92.1277 37.433C91.2551 38.3002 91.3685 34.8878 92.8913 30.2569C94.4752 25.4395 94.9334 22.2916 92.4943 22.2916C90.4522 22.2916 88.1658 25.5609 86.2765 29.7105C86.9754 27.1834 87.8832 24.7179 88.9905 22.3393C89.3876 21.0992 86.1238 20.7956 86.0932 20.917C85.3602 24.0954 83.8374 28.6395 82.956 32.1908C82.8687 32.5376 82.7902 32.8628 82.7204 33.175C82.18 34.1313 81.5857 35.0563 80.9401 35.9458C80.0674 37.0515 79.3082 36.5008 79.7227 33.9772C80.4863 29.381 83.2701 22.9897 83.3749 22.7035C83.6847 21.6672 81.4594 20.9691 80.4907 21.0775C80.4907 21.0775 80.4558 21.2509 80.3161 21.6975C79.8798 23.046 78.4748 27.1219 77.6371 29.936C77.146 31.4505 76.8527 33.0215 76.7644 34.6103C76.3944 35.2183 75.9471 35.7765 75.4336 36.271C74.3558 37.1382 73.5573 35.1653 75.2634 29.8796C77.0698 24.3859 77.5934 20.774 74.8271 20.774C72.4272 20.774 69.7176 24.7111 67.5621 29.6542C68.221 27.3387 69.1242 24.4509 70.1016 21.4981C71.7378 16.5897 73.4046 12.6179 73.5922 12.1019C74.0286 10.684 70.1845 10.2027 70.1496 10.3371C69.3118 14.0011 64.9703 28.0282 63.958 32.0693C62.5311 37.7366 62.95 39.1198 65.3848 38.7035" fill="#8F959C"/>
<path d="M80.2027 19.4125C80.5605 19.0829 81.5117 18.0509 82.5066 16.9583C82.3538 17.7084 82.2055 18.3935 82.1226 18.9225C82.0746 19.2173 83.4316 18.9919 83.4316 18.9658C83.4316 18.6493 83.4316 17.7778 83.3618 16.7978C84.0425 17.7344 84.6272 18.6016 85.1071 19.2737C85.3471 19.6076 86.4816 18.3024 86.4554 18.2764C86.1587 17.9556 85.2947 17.1621 84.3261 16.2818C84.9369 16.4119 85.4955 16.529 85.9405 16.6027C86.2372 16.6504 86.1456 15.1675 86.1194 15.1675C85.8183 15.1675 84.9588 15.2022 84.0032 15.2759C84.5922 14.6341 85.1115 14.0791 85.3558 13.8363C86.2285 12.9691 86.1587 12.7219 85.9754 12.6352C85.9754 12.6352 85.7703 12.826 85.1289 13.4591C84.5374 14.041 83.9124 14.5882 83.2571 15.0981L83.2003 13.6369C83.2003 12.7696 83.052 12.6786 82.9124 12.735C82.9124 12.735 82.9124 12.9257 82.9124 13.5631C82.9116 14.024 82.8839 14.4844 82.8294 14.942C81.9568 14.1572 81.1932 13.4677 80.8747 13.1512C80.002 12.284 79.7489 12.3447 79.666 12.5355C79.666 12.5355 79.8493 12.735 80.4907 13.368C81.1342 14.0143 81.7389 14.6977 82.3015 15.4146C81.5597 15.4667 80.9183 15.5013 80.6347 15.51C79.762 15.51 79.6791 15.6661 79.7271 15.7962C80.0017 15.8139 80.2772 15.8139 80.5518 15.7962C81.1022 15.7974 81.6518 15.8365 82.1968 15.9133C81.071 16.7458 79.9889 17.4482 79.1991 18.0336C78.8544 18.2808 80.1678 19.4081 80.194 19.3778" fill="#8F959C"/>
<path d="M97.7652 37.2119C86.2023 47.8396 64.115 39.4276 52.8663 40.2471L53.9964 36.9648C54.2561 37.4175 54.5648 37.8406 54.9171 38.2265C55.0863 38.4086 55.2996 38.5444 55.5367 38.6211C55.7831 38.5791 56.0329 38.5602 56.2828 38.5648C56.4966 38.5648 56.7192 38.5908 56.9286 38.6125C58.7569 38.1138 61.2003 35.8764 62.8278 31.5664C64.7652 26.4499 64.3856 22.3176 61.8417 22.3176C59.5204 22.3176 56.9155 26.3891 56.1694 28.5702C56.1388 28.6656 56.1039 28.6959 56.1388 28.5702C56.8675 25.8211 58.2376 23.6791 58.5561 22.413C58.8747 21.0558 55.5672 20.8043 55.5367 20.9301C54.76 25.4742 52.9187 32 51.5399 36.5702C50.6672 37.1772 50.2003 36.7696 50.6323 34.5539C51.0207 32.2186 51.6149 29.9218 52.4082 27.69C53.3943 24.7805 52.9012 24.8455 49.7902 23.7008C49.1967 23.5057 48.7037 23.3062 48.311 23.1458C48.4093 21.9916 48.4093 20.8312 48.311 19.6769C48.311 19.5816 44.5934 20.0368 44.9556 21.7019C45.1519 22.6515 45.9417 23.3713 47.0936 24.026C47.1547 25.8269 46.7932 27.6172 46.0377 29.2553L45.6406 29.975C44.9512 31.2759 43.7993 32.6547 42.4161 32.8542C42.801 32.0491 43.1305 31.219 43.4022 30.3696C44.7505 26.116 44.3883 23.0764 41.7572 23.0764C41.6785 23.0688 41.599 23.0808 41.526 23.1111C41.3024 22.7815 41.0606 22.4645 40.8017 22.1615C39.3879 20.5919 34.4181 23.3713 32.3455 30.0444C31.7545 31.8328 31.6506 33.7447 32.0444 35.5859C31.8652 35.8347 31.662 36.0655 31.4379 36.2753C30.3514 37.1425 29.7929 36.8347 30.2118 34.2547C30.6482 31.9566 32.28 26.3805 33.9992 21.3984L34.9111 18.6146C40.0643 19.833 45.6755 19.5555 49.9516 17.8471C54.315 16.1127 52.9667 13.1425 52.4082 13.5111C46.9758 16.9279 40.662 18.0379 35.3344 17.1707C38.2447 6.82058 37.263 0.0303345 31.6168 0.0303345C24.1991 0.0303345 19.6612 8.11272 25.0238 13.407C26.9749 15.2973 29.3045 16.7584 31.8612 17.6954C31.7564 18.0076 31.6517 18.3198 30.5522 22.1181C30.3261 21.7676 30.0799 21.4303 29.8148 21.1078C28.3443 19.5078 22.9425 22.5387 20.7695 29.5068C19.334 34.1377 20.3812 38.6688 23.2261 38.6688C25.7874 38.6688 27.6418 34.2114 28.4621 31.8049C28.4651 31.7784 28.4775 31.7538 28.497 31.7355V31.7528C27.6898 34.749 27.3407 37.8493 28.5668 38.374C29.3741 38.7208 30.4954 38.1615 31.7914 36.7696C31.9441 36.6049 32.1011 36.4228 32.2539 36.232C32.7818 37.6715 33.7549 38.6125 35.0813 38.6125C37.2848 38.6125 39.9857 37.1078 41.923 33.7084C43.7644 33.4786 45.2785 31.7095 45.9373 30.6341L46.1991 30.1442C47.1552 28.3873 47.8016 26.4809 48.1103 24.5073L49.1269 24.8975C49.9996 25.2227 50.2789 25.2227 48.6339 30.7165C47.2202 35.3951 47.8092 37.91 49.0266 38.4C49.6156 38.6428 50.3356 38.4 51.1559 37.7452L51.0992 37.9317C50.8461 38.7989 50.497 39.8265 50.148 40.9322C47.2225 41.4889 44.4299 42.5925 41.9187 44.1843C36.0718 48.0347 33.5323 55.9913 40.6795 55.9913C45.7672 55.9913 49.1357 50.142 51.902 42.7794L52.142 42.116C64.5165 40.4813 84.1297 52.5225 96.862 45.2162C100.693 42.9832 98.171 36.8087 97.7346 37.2032L97.7652 37.2119ZM55.528 32.0954C56.8631 27.9588 59.7211 24.2385 60.8338 24.2385C61.9464 24.2385 61.785 26.762 60.1662 31.4016C58.8005 35.161 56.5141 37.7452 55.1789 37.0385C54.7963 36.7912 54.4802 36.4548 54.2582 36.0585C54.6727 34.736 55.0829 33.4092 55.528 32.0824V32.0954ZM27.0702 13.2206C22.4058 8.55066 27.14 1.07966 30.8227 1.07966C33.6981 1.07966 35.186 4.87803 32.1884 16.3035C30.2705 15.6635 28.5215 14.604 27.0702 13.2032V13.2206ZM28.1218 30.1702C26.7473 34.7881 25.5867 36.5225 24.3606 36.5225C23.1345 36.5225 22.5716 33.561 23.7672 29.4851C24.9627 25.4092 28.1305 21.6455 29.553 22.413C29.8524 22.6094 30.114 22.8576 30.3253 23.1458L28.1218 30.1702ZM35.6835 37.6889C34.3352 37.6889 34.0079 33.8298 35.09 30.0054C36.3729 25.6694 38.8731 22.3219 40.518 23.2022L40.7493 23.3669C38.3146 24.8715 37.1321 31.51 39.6323 33.1447C38.5153 35.7463 36.9663 37.6889 35.7053 37.6889H35.6835ZM40.6708 30.3176C40.5093 30.903 40.3086 31.458 40.1123 32.0173C38.4324 30.0574 40.1472 24.039 41.0984 24.039C41.2183 24.0482 41.3325 24.0936 41.4256 24.1691L41.6569 24.4943C41.9536 25.3615 41.4605 27.5035 40.6708 30.3176ZM41.5085 55.0331C37.3808 55.0331 37.7604 48.4683 42.8437 44.9301C44.8752 43.5954 47.1929 42.7519 49.6113 42.4672C47.543 48.2124 44.4625 55.0417 41.5085 55.0417" fill="#8F959C"/>
</g>
<defs>
<clipPath id="clip0_3465_36809">
<rect width="99" height="56" fill="white"/>
</clipPath>
</defs>
</svg>
