<svg width="12" height="12" viewBox="0 0 12 12" fill="none" xmlns="http://www.w3.org/2000/svg">
<path fill-rule="evenodd" clip-rule="evenodd" d="M0.000125342 1.5C0.000125342 0.672 0.672125 0 1.50013 0C2.32813 0 3.00013 0.672 3.00013 1.5C3.00013 2.328 2.32813 3 1.50013 3C0.672125 3 0.000125342 2.328 0.000125342 1.5ZM8.10026 3.60027C5.94625 3.60027 4.19959 5.33627 4.19959 7.47627V11.3996C4.19959 11.7309 4.46892 12.0003 4.80025 12.0003H6.19959C6.53092 12.0003 6.80025 11.7309 6.80025 11.3996V7.47627C6.80025 6.71894 7.45625 6.11361 8.23492 6.19161C8.91092 6.25894 9.39959 6.87694 9.39959 7.55627V11.3996C9.39959 11.7309 9.66892 12.0003 10.0003 12.0003H11.3996C11.7309 12.0003 12.0003 11.7309 12.0003 11.3996V7.47627C12.0003 5.33627 10.2536 3.60027 8.10026 3.60027ZM2.39973 4.19986H0.600392C0.269059 4.19986 -0.000274658 4.46853 -0.000274658 4.79986V11.3999C-0.000274658 11.7312 0.269059 11.9999 0.600392 11.9999H2.39973C2.73106 11.9999 2.99973 11.7312 2.99973 11.3999V4.79986C2.99973 4.46853 2.73106 4.19986 2.39973 4.19986Z" fill="#535861"/>
</svg>
