<svg width="180" height="31" viewBox="0 0 180 31" fill="none" xmlns="http://www.w3.org/2000/svg">
<g clip-path="url(#clip0_3465_36776)">
<path d="M0 30.9965H31.9581V30.9913L15.9831 15.4948L0 30.9965Z" fill="#8F959C"/>
<path d="M0.0039978 0V30.9957L15.9835 15.4948L0.0039978 0Z" fill="#8F959C"/>
<path d="M44.4771 15.3359L53.3682 24.3674V24.5708H49.0671L41.3388 16.6392V24.5708H37.8531V6.66321H41.3343V14.2351L48.3543 6.66321H52.6797V6.76098L44.4771 15.3359Z" fill="#8F959C"/>
<path d="M62.6031 18.6644C62.6031 17.0827 61.4898 15.3787 59.7105 15.3787C57.9312 15.3787 56.8431 17.0853 56.8431 18.6644C56.8431 20.2436 57.933 21.9816 59.7141 21.9816C61.4952 21.9816 62.6067 20.2532 62.6067 18.6644H62.6031ZM65.6748 24.5673H62.2548V23.4866H62.2062C61.8056 23.954 61.3021 24.3283 60.7326 24.5821C60.1632 24.8359 59.5424 24.9627 58.9158 24.9532C55.3554 24.9532 53.3241 21.8106 53.3241 18.6182C53.3241 15.4974 55.3797 12.4019 58.8663 12.4019C59.5076 12.4003 60.1418 12.532 60.7263 12.7879C61.3108 13.0439 61.8319 13.4183 62.2548 13.8859V12.7817H65.6748V24.5673Z" fill="#8F959C"/>
<path d="M77.6448 18.6644C77.6448 17.0827 76.5567 15.3787 74.7747 15.3787C72.9927 15.3787 71.9055 17.0827 71.9055 18.6644C71.9055 20.2462 72.9954 21.9816 74.7747 21.9816C76.554 21.9816 77.6448 20.2532 77.6448 18.6644ZM72.252 13.8632C72.6731 13.4013 73.1909 13.0317 73.7708 12.7791C74.3508 12.5266 74.9796 12.3968 75.6153 12.3985C79.0551 12.3985 81.1584 15.5201 81.1584 18.6156C81.1584 21.8289 79.1298 24.9514 75.5406 24.9514C74.9185 24.9632 74.302 24.8348 73.7398 24.5762C73.1776 24.3176 72.6849 23.9359 72.3006 23.4613H72.252V30.8516H68.7888V12.7816H72.252V13.8632Z" fill="#8F959C"/>
<path d="M87.0174 24.569H83.5533V12.7843H87.0174V24.569ZM87.3396 7.84599C87.3394 8.23987 87.2189 8.62487 86.9932 8.95231C86.7675 9.27975 86.4467 9.53496 86.0716 9.68566C85.6964 9.83635 85.2835 9.87575 84.8852 9.79893C84.487 9.72211 84.1211 9.53249 83.8339 9.25403C83.5467 8.97558 83.351 8.6208 83.2716 8.23451C83.1923 7.84823 83.2327 7.4478 83.3879 7.08382C83.5431 6.71984 83.8061 6.40862 84.1436 6.18956C84.481 5.9705 84.8779 5.85344 85.284 5.8531C85.5541 5.85229 85.8217 5.90328 86.0714 6.00314C86.3212 6.10299 86.548 6.24971 86.7391 6.43492C86.9301 6.62013 87.0815 6.84016 87.1846 7.08233C87.2876 7.32449 87.3403 7.58401 87.3396 7.84599Z" fill="#8F959C"/>
<path d="M94.1418 24.5699H90.6831V15.6214H89.4942V12.7878H90.6831V8.80713H94.1445V12.7878H96.2739V15.6214H94.1445L94.1418 24.5699Z" fill="#8F959C"/>
<path d="M106.066 18.6644C106.066 17.0827 104.953 15.3787 103.172 15.3787C101.392 15.3787 100.301 17.0827 100.301 18.6644C100.301 20.2462 101.39 21.9816 103.172 21.9816C104.954 21.9816 106.066 20.2532 106.066 18.6644ZM109.135 24.5673H105.715V23.4866H105.667C105.267 23.9539 104.763 24.3282 104.194 24.582C103.625 24.8358 103.004 24.9626 102.378 24.9532C98.8155 24.9532 96.786 21.8106 96.786 18.6182C96.786 15.4974 98.8416 12.4019 102.328 12.4019C102.969 12.4004 103.603 12.532 104.187 12.788C104.772 13.044 105.292 13.4184 105.715 13.8859V12.7817H109.135V24.5673Z" fill="#8F959C"/>
<path d="M115.713 4.22504H112.249V24.5699H115.713V4.22504Z" fill="#8F959C"/>
<path d="M147.793 18.6644C147.793 17.0827 146.679 15.3787 144.9 15.3787C143.121 15.3787 142.031 17.0827 142.031 18.6644C142.031 20.2462 143.119 21.9816 144.9 21.9816C146.681 21.9816 147.793 20.2532 147.793 18.6644ZM150.861 24.5673H147.447V23.4866H147.398C146.997 23.9536 146.494 24.3277 145.925 24.5815C145.355 24.8352 144.735 24.9622 144.108 24.9532C140.544 24.9532 138.516 21.8106 138.516 18.6182C138.516 15.4974 140.571 12.4019 144.058 12.4019C144.699 12.4002 145.333 12.5318 145.918 12.7878C146.503 13.0438 147.024 13.4182 147.447 13.8859V12.7817H150.861V24.5673Z" fill="#8F959C"/>
<path d="M157.44 13.8685H157.49C157.847 13.3845 158.324 12.9962 158.878 12.74C159.432 12.4838 160.043 12.3681 160.655 12.4037C163.922 12.4037 164.861 14.6384 164.861 17.3725V24.5691H161.397V18.3301C161.397 16.9151 161.472 15.0941 159.52 15.0941C157.466 15.0941 157.44 17.3245 157.44 18.7413V24.5691H153.977V12.7843H157.44V13.8685Z" fill="#8F959C"/>
<path d="M171.413 17.108H171.462L175.099 12.7886H179.599L174.475 17.9731L179.992 24.5681H175.441L171.458 19.5566H171.413V24.5681H167.947V4.22333H171.413V17.108Z" fill="#8F959C"/>
<path d="M127.313 21.7389H129.588C131.543 21.7389 133.227 21.4971 133.227 19.1463C133.227 16.7954 131.247 16.702 129.415 16.702H127.313V21.7389ZM127.313 14.0116H129.269C131.049 14.0116 131.914 13.5097 131.914 11.6346C131.914 9.79007 130.825 9.30908 129.291 9.30908H127.311L127.313 14.0116ZM123.677 6.47638H129.713C133.174 6.47638 135.303 7.79802 135.303 11.398C135.343 12.0666 135.216 12.7346 134.931 13.3448C134.647 13.9551 134.215 14.4894 133.671 14.902C135.873 15.2844 136.859 17.4423 136.859 19.4361C136.859 22.9864 134.289 24.5699 130.9 24.5699H123.677V6.47638Z" fill="#8F959C"/>
<path d="M31.9594 0H0.0039978V31L31.9594 0Z" fill="#8F959C"/>
</g>
<defs>
<clipPath id="clip0_3465_36776">
<rect width="180" height="31" fill="white"/>
</clipPath>
</defs>
</svg>
