<svg width="122" height="56" viewBox="0 0 122 56" fill="none" xmlns="http://www.w3.org/2000/svg">
<g clip-path="url(#clip0_3465_36762)">
<path fill-rule="evenodd" clip-rule="evenodd" d="M64.2424 31.7076H69.8966C73.8393 31.7076 75.8945 33.1123 75.8945 36.1188C75.8945 37.4535 75.0945 38.4486 74.2745 38.9678V39.0121C75.3702 39.3971 77.0547 40.572 77.0547 42.7665C77.0547 45.6831 75.3221 47.6945 70.5793 47.6945H64.2424V31.7076ZM69.5329 38.2655C71.2198 38.2655 72.0633 37.9738 72.0633 36.547C72.0633 35.1913 71.1506 34.6488 69.3288 34.6488H68.1405V38.2655H69.5329ZM70.0984 44.6868C72.1524 44.6868 73.18 44.1466 73.18 42.8551C73.18 41.4085 72.0633 40.8881 69.8274 40.8881H68.1405V44.6868H70.0984ZM78.2771 44.1688C78.2771 41.048 81.1523 40.4156 83.611 40.4156H85.7777V39.6456C85.7777 38.5618 85.0739 38.2456 83.5219 38.2456C82.2925 38.2456 80.9646 38.5151 79.8056 38.7881L79.0513 36.0535C80.4649 35.5086 82.106 35.0571 84.0908 35.0571C87.9456 35.0571 89.4952 36.141 89.4952 38.9223V44.4161C89.4952 44.8268 89.9058 44.9166 90.6143 44.9353L90.4782 47.7855C90.1791 47.8111 89.8835 47.8111 89.5867 47.8111C88.084 47.8111 86.4863 47.5603 86.1414 46.4975C85.2311 47.1975 83.9301 47.8975 82.5635 47.8975C79.8255 47.8975 78.2771 46.6316 78.2771 44.1688ZM85.7777 44.5538V42.6066L83.9078 42.6545C82.7899 42.6731 81.9723 43.0348 81.9723 43.9413C81.9723 44.6646 82.6784 44.9808 83.36 44.9808C84.0908 44.9808 84.9601 44.7766 85.7777 44.5515V44.5538ZM92.4795 35.3511H96.2861V36.5948C97.0369 36.029 98.6827 35.0338 100.345 35.0338C104.244 35.0338 104.521 37.1583 104.521 39.963V47.6945H100.732V40.278C100.732 38.5828 100.345 38.2888 99.0687 38.2888C97.9285 38.2888 96.902 38.6528 96.2861 38.9468V47.6945H92.4795V35.35V35.3511ZM106.974 30.6483H110.781V39.9175L114.228 35.3511H118.307L113.767 41.048L119.058 47.6945H114.363L110.781 42.6078V47.6945H106.973L106.974 30.6483Z" fill="#E24353"/>
<path fill-rule="evenodd" clip-rule="evenodd" d="M38.1801 8.18298H48.1091V24.1733H31.9839V20.566L40.8911 11.7355L41.3287 11.3038L38.1801 8.18298Z" fill="#099A71"/>
<path fill-rule="evenodd" clip-rule="evenodd" d="M28.1808 0L39.5855 11.305L28.1808 22.6112L25.6118 20.062V6.96033H21.16L28.1808 0Z" fill="#E24353"/>
<path fill-rule="evenodd" clip-rule="evenodd" d="M8.25494 8.18298V18.0297L10.9648 15.344L11.4047 14.9123L20.7412 24.1745H24.3812V8.18298H8.25494Z" fill="#099A71"/>
<path fill-rule="evenodd" clip-rule="evenodd" d="M0 27.9451L11.4047 16.639L22.8034 27.9451L20.2321 30.4966H7.02087V34.909L0 27.9451Z" fill="#E24353"/>
<path fill-rule="evenodd" clip-rule="evenodd" d="M8.25494 47.7085V31.717H24.3812V35.3243L15.4741 44.1548L15.0365 44.5865L15.4741 45.0181L18.185 47.7085H8.25494Z" fill="#099A71"/>
<path fill-rule="evenodd" clip-rule="evenodd" d="M28.1844 55.8915L16.7797 44.5865L28.1844 33.2792L30.7499 35.826V48.93H35.2052L28.1844 55.8915Z" fill="#E24353"/>
<path fill-rule="evenodd" clip-rule="evenodd" d="M48.109 47.7085H31.9816V31.717H35.6216L44.5253 40.551L44.9628 40.9791L45.3969 40.5475L48.109 37.8606V47.7085Z" fill="#099A71"/>
<path fill-rule="evenodd" clip-rule="evenodd" d="M44.9641 39.2536L33.5641 27.9451L36.1331 25.396H49.3443V20.9836L56.3652 27.9451L44.9641 39.2536Z" fill="#E24353"/>
<path fill-rule="evenodd" clip-rule="evenodd" d="M64.2424 8.20051H70.4972C74.1138 8.20051 76.7051 10.3005 76.7051 13.8623C76.7051 16.9972 74.1126 19.6362 69.3136 19.6362H68.1288V24.1453H64.2424V8.20051ZM69.4485 16.681C71.8615 16.681 72.7225 15.4408 72.7225 13.9545C72.7225 12.3503 72.0656 11.2012 69.9951 11.2012H68.1299V16.681H69.4485ZM93.0754 23.2657L94.1699 20.5147C95.6034 21.0128 96.6451 21.238 98.42 21.238C100.357 21.238 101.241 20.6512 101.241 19.6817C101.241 17.0882 93.5998 17.787 93.5998 12.3748C93.5998 9.30651 96.5337 7.97534 99.3784 7.97534C101.924 7.97534 103.153 8.51784 104.403 9.06034L103.288 11.718C102.106 11.3832 101.126 11.0647 99.491 11.0647C97.878 11.0647 97.3748 11.6737 97.3748 12.3503C97.3748 14.4713 105.155 14.4713 105.155 19.5452C105.155 23.0405 101.788 24.3938 98.4681 24.3938C95.831 24.3938 94.2814 23.919 93.0754 23.2657ZM86.8652 8.20051H81.5863L76.1702 24.1453H80.1786L81.6989 19.4787H86.7525L88.2729 24.1453H92.2777L86.8663 8.20051H86.8652ZM82.6116 16.7043L84.2246 10.5677L85.8399 16.7043H82.6116Z" fill="#8F959C"/>
<path fill-rule="evenodd" clip-rule="evenodd" d="M64.5192 8.16669H70.8433C74.4998 8.16669 77.1216 10.269 77.1216 13.8297C77.1216 16.9645 74.4998 19.6047 69.6491 19.6047H68.4526V24.1197H64.5192V8.16669ZM69.7863 16.6484C72.2263 16.6484 73.0956 15.4035 73.0956 13.9207C73.0956 12.3189 72.4328 11.1709 70.3389 11.1709H68.4526V16.6484H69.7852H69.7863ZM116.221 8.16669H110.966L105.577 24.1185H109.565L111.079 19.4495H116.109L117.629 24.1185H121.618L116.22 8.16669H116.221ZM111.987 16.6764L113.598 10.5362L115.203 16.6764H111.987ZM87.2499 8.16669H81.991L76.6019 24.1185H80.5904L82.1036 19.4495H87.1338L88.6541 24.1185H92.6426L87.2488 8.16669H87.2499ZM83.0093 16.6764L84.6199 10.5362L86.227 16.6764H83.0093ZM101.021 23.8374C101.251 24.4674 101.513 25.4719 101.513 26.11C101.513 28.0957 99.4875 29.1749 98.1408 29.8165L96.9313 27.3584C97.4674 26.9897 98.5502 26.5032 98.5502 25.6434C98.5502 25.1767 98.4493 24.5969 98.3461 24.115C96.0023 24.0859 94.5969 23.6367 93.4942 23.0265L94.5265 20.3502C95.885 20.8332 96.8809 21.0525 98.5654 21.0525C100.395 21.0525 101.242 20.4844 101.242 19.5405C101.242 17.0205 93.9869 17.7054 93.9869 12.4425C93.9869 9.46169 96.7706 8.16669 99.4675 8.16669C101.891 8.16669 103.054 8.69752 104.242 9.22135L103.184 11.8102C102.061 11.48 101.132 11.1744 99.5813 11.1744C98.0446 11.1744 97.5695 11.7624 97.5695 12.4192C97.5695 14.4842 104.952 14.4842 104.952 19.411C104.952 21.9217 103.206 23.2937 101.022 23.8374H101.021Z" fill="#099A71"/>
</g>
<defs>
<clipPath id="clip0_3465_36762">
<rect width="122" height="56" fill="white"/>
</clipPath>
</defs>
</svg>
