<svg width="56" height="56" viewBox="0 0 56 56" fill="none" xmlns="http://www.w3.org/2000/svg">
<rect width="56" height="56" rx="2" fill="#DFE8FA"/>
<path fill-rule="evenodd" clip-rule="evenodd" d="M30 23C30 21.897 29.103 21 28 21C26.897 21 26 21.897 26 23C26 24.103 26.897 25 28 25C29.103 25 30 24.103 30 23ZM32 23C32 25.206 30.206 27 28 27C25.794 27 24 25.206 24 23C24 20.794 25.794 19 28 19C30.206 19 32 20.794 32 23ZM21 36C21 32.14 24.141 29 28 29C31.859 29 35 32.14 35 36C35 36.552 34.553 37 34 37C33.447 37 33 36.552 33 36C33 33.243 30.757 31 28 31C25.243 31 23 33.243 23 36C23 36.552 22.553 37 22 37C21.447 37 21 36.552 21 36Z" fill="#0055FF"/>
<mask id="mask0_3465_36855" style="mask-type:luminance" maskUnits="userSpaceOnUse" x="21" y="19" width="14" height="18">
<path fill-rule="evenodd" clip-rule="evenodd" d="M30 23C30 21.897 29.103 21 28 21C26.897 21 26 21.897 26 23C26 24.103 26.897 25 28 25C29.103 25 30 24.103 30 23ZM32 23C32 25.206 30.206 27 28 27C25.794 27 24 25.206 24 23C24 20.794 25.794 19 28 19C30.206 19 32 20.794 32 23ZM21 36C21 32.14 24.141 29 28 29C31.859 29 35 32.14 35 36C35 36.552 34.553 37 34 37C33.447 37 33 36.552 33 36C33 33.243 30.757 31 28 31C25.243 31 23 33.243 23 36C23 36.552 22.553 37 22 37C21.447 37 21 36.552 21 36Z" fill="white"/>
</mask>
<g mask="url(#mask0_3465_36855)">
<rect x="16" y="16" width="24" height="24" fill="#0055FF"/>
</g>
</svg>
