<svg width="56" height="56" viewBox="0 0 56 56" fill="none" xmlns="http://www.w3.org/2000/svg">
<rect width="56" height="56" rx="2" fill="#D2F9CC"/>
<path fill-rule="evenodd" clip-rule="evenodd" d="M34 26C34 25.449 33.552 25 33 25C32.448 25 32 25.449 32 26C32 26.551 32.448 27 33 27C33.552 27 34 26.551 34 26ZM36 26C36 27.654 34.654 29 33 29C31.346 29 30 27.654 30 26C30 24.346 31.346 23 33 23C34.654 23 36 24.346 36 26ZM27 23C27 21.897 26.103 21 25 21C23.897 21 23 21.897 23 23C23 24.103 23.897 25 25 25C26.103 25 27 24.103 27 23ZM29 23C29 25.206 27.206 27 25 27C22.794 27 21 25.206 21 23C21 20.794 22.794 19 25 19C27.206 19 29 20.794 29 23ZM29.94 31.046C30.809 30.374 31.879 30 33 30C35.757 30 38 32.243 38 35C38 35.552 37.553 36 37 36C36.447 36 36 35.552 36 35C36 33.346 34.654 32 33 32C32.317 32 31.668 32.234 31.144 32.649C31.688 33.645 32 34.787 32 36C32 36.552 31.553 37 31 37C30.447 37 30 36.552 30 36C30 33.243 27.757 31 25 31C22.243 31 20 33.243 20 36C20 36.552 19.553 37 19 37C18.447 37 18 36.552 18 36C18 32.14 21.141 29 25 29C26.927 29 28.673 29.783 29.94 31.046Z" fill="#1EE100"/>
<mask id="mask0_3465_36864" style="mask-type:luminance" maskUnits="userSpaceOnUse" x="18" y="19" width="20" height="18">
<path fill-rule="evenodd" clip-rule="evenodd" d="M34 26C34 25.449 33.552 25 33 25C32.448 25 32 25.449 32 26C32 26.551 32.448 27 33 27C33.552 27 34 26.551 34 26ZM36 26C36 27.654 34.654 29 33 29C31.346 29 30 27.654 30 26C30 24.346 31.346 23 33 23C34.654 23 36 24.346 36 26ZM27 23C27 21.897 26.103 21 25 21C23.897 21 23 21.897 23 23C23 24.103 23.897 25 25 25C26.103 25 27 24.103 27 23ZM29 23C29 25.206 27.206 27 25 27C22.794 27 21 25.206 21 23C21 20.794 22.794 19 25 19C27.206 19 29 20.794 29 23ZM29.94 31.046C30.809 30.374 31.879 30 33 30C35.757 30 38 32.243 38 35C38 35.552 37.553 36 37 36C36.447 36 36 35.552 36 35C36 33.346 34.654 32 33 32C32.317 32 31.668 32.234 31.144 32.649C31.688 33.645 32 34.787 32 36C32 36.552 31.553 37 31 37C30.447 37 30 36.552 30 36C30 33.243 27.757 31 25 31C22.243 31 20 33.243 20 36C20 36.552 19.553 37 19 37C18.447 37 18 36.552 18 36C18 32.14 21.141 29 25 29C26.927 29 28.673 29.783 29.94 31.046Z" fill="white"/>
</mask>
<g mask="url(#mask0_3465_36864)">
<rect x="16" y="16" width="24" height="24" fill="#1EE100"/>
</g>
</svg>
