<svg width="180" height="30" viewBox="0 0 180 30" fill="none" xmlns="http://www.w3.org/2000/svg">
<g clip-path="url(#clip0_3465_36794)">
<path fill-rule="evenodd" clip-rule="evenodd" d="M59.7286 29.5423L60.4791 29.9007L61.1844 28.3928H63.4433L64.1559 29.9007L64.9053 29.5423L62.3101 24.0427L59.7286 29.5423ZM62.3101 25.9972L63.0469 27.5529H61.5827L62.3101 25.9972Z" fill="#8F959C"/>
<path fill-rule="evenodd" clip-rule="evenodd" d="M73.436 29.8495C73.0649 29.8495 72.7013 29.7732 72.3492 29.6247C72.0077 29.4805 71.7083 29.2801 71.4554 29.0181C71.1918 28.7562 70.9894 28.455 70.8503 28.1199C70.7006 27.7646 70.6289 27.3988 70.6289 27.0149C70.6289 26.632 70.7006 26.263 70.8503 25.9141C70.9198 25.7423 71.0053 25.5864 71.1075 25.4379C71.2087 25.2906 71.3257 25.1452 71.4554 25.0106C71.7083 24.7571 72.0077 24.5546 72.3492 24.404C72.6886 24.2608 73.0555 24.1919 73.436 24.1919C73.9293 24.1919 74.3805 24.3043 74.8042 24.5355C75.0067 24.6531 75.1943 24.7826 75.3608 24.9438C75.5316 25.1017 75.677 25.2788 75.8004 25.474L75.1015 25.9342C74.915 25.6458 74.6777 25.4221 74.3868 25.264C74.0969 25.1092 73.7796 25.0296 73.436 25.0296C73.1673 25.0296 72.9058 25.0827 72.6675 25.1824C72.4283 25.2884 72.2185 25.4305 72.0404 25.6108C71.8611 25.7879 71.721 26.0021 71.6145 26.2407C71.5133 26.4846 71.4606 26.7424 71.4606 27.0149C71.4606 27.2928 71.5133 27.5483 71.6145 27.7911C71.721 28.0329 71.8611 28.2429 72.0404 28.4274C72.2185 28.6067 72.4283 28.753 72.6675 28.8537C72.9058 28.9587 73.1673 29.0139 73.436 29.0139C73.6373 29.0139 73.8302 28.9821 74.0136 28.9291C74.1992 28.8718 74.371 28.7933 74.5281 28.6904C74.6862 28.5812 74.8211 28.4582 74.9465 28.3192C75.0699 28.1761 75.169 28.016 75.2512 27.841H73.2663V27.0021H76.261C76.261 27.0435 76.261 27.0944 76.2568 27.1495C76.2537 27.2026 76.2484 27.2577 76.2389 27.3086C76.2315 27.3701 76.2241 27.4264 76.2104 27.4889C76.1609 27.8155 76.0523 28.122 75.8879 28.4115C75.7276 28.7011 75.52 28.9555 75.2681 29.1709C75.0108 29.3925 74.7231 29.559 74.4121 29.6756C74.0991 29.7902 73.7744 29.8495 73.436 29.8495Z" fill="#8F959C"/>
<path fill-rule="evenodd" clip-rule="evenodd" d="M83.6551 25.156V26.4847H85.9583V27.3214H83.6551V28.8792H86.0342V29.716H82.8244V24.3223H86.0342V25.156H83.6551Z" fill="#8F959C"/>
<path fill-rule="evenodd" clip-rule="evenodd" d="M93.7135 26.0507V29.7156H92.8828V24.0728L96.9035 28.0126V24.3221H97.7381V29.9999L93.7135 26.0507Z" fill="#8F959C"/>
<path fill-rule="evenodd" clip-rule="evenodd" d="M107.176 29.8205C106.801 29.8205 106.439 29.7473 106.092 29.5988C105.758 29.4567 105.463 29.2605 105.203 28.9976C104.947 28.7388 104.748 28.4397 104.607 28.1046C104.46 27.7578 104.387 27.392 104.387 27.0145C104.387 26.6401 104.46 26.2721 104.607 25.919C104.748 25.5838 104.947 25.2869 105.203 25.0314C105.456 24.7811 105.754 24.5764 106.092 24.4279C106.263 24.3516 106.439 24.2965 106.621 24.2614C106.801 24.2275 106.983 24.2084 107.176 24.2084C107.559 24.2084 107.921 24.2826 108.261 24.4279C108.423 24.5022 108.58 24.587 108.729 24.6824C108.877 24.7821 109.017 24.8956 109.143 25.0292L108.56 25.6199C108.37 25.4301 108.161 25.2922 107.921 25.1947C107.686 25.0949 107.439 25.0462 107.176 25.0462C106.905 25.0462 106.654 25.0992 106.414 25.1999C106.175 25.3039 105.971 25.4439 105.794 25.6242C105.618 25.8002 105.479 26.0112 105.376 26.253C105.272 26.4927 105.219 26.7493 105.219 27.0145C105.219 27.2848 105.272 27.5415 105.376 27.7822C105.479 28.0208 105.618 28.2319 105.794 28.4047C105.971 28.5807 106.175 28.7218 106.414 28.8267C106.654 28.9307 106.905 28.9816 107.176 28.9816C107.439 28.9816 107.686 28.9361 107.921 28.8385C108.161 28.7388 108.37 28.5987 108.56 28.4111L109.143 28.9976C108.887 29.2605 108.591 29.4567 108.261 29.5988C107.914 29.7473 107.549 29.8205 107.176 29.8205Z" fill="#8F959C"/>
<path fill-rule="evenodd" clip-rule="evenodd" d="M118.011 27.6395V29.716H117.175V27.6395L114.921 24.6086L115.588 24.1049L117.592 26.8007L119.603 24.1049L120.271 24.6086L118.011 27.6395Z" fill="#8F959C"/>
<path fill-rule="evenodd" clip-rule="evenodd" d="M6.80851 16.8532H6.51441C5.89143 16.8373 5.24947 16.7588 4.5896 16.6104C3.93183 16.4683 3.31623 16.2689 2.74912 16.0165C2.12509 15.7248 1.57484 15.3824 1.10366 14.9911C0.632467 14.6029 0.26669 14.1745 0 13.7132L3.02003 11.9581C3.11701 12.1192 3.28145 12.29 3.50914 12.4586C3.73683 12.6251 4.00984 12.7757 4.32397 12.9188C4.63177 13.0599 4.97751 13.1681 5.35172 13.2529C5.72488 13.3388 6.10857 13.3802 6.49543 13.3802H6.5355H6.59768C6.91919 13.4088 7.30605 13.3802 7.7551 13.2953C8.20204 13.2105 8.65321 13.0652 9.09698 12.8553C9.86125 12.5043 10.2754 12.0397 10.344 11.449C10.3587 11.2868 10.344 11.1543 10.306 11.063C10.2597 10.9708 10.208 10.8944 10.1395 10.8223C9.88759 10.5476 9.50807 10.3345 8.99158 10.1966C8.34119 10.0004 7.59066 9.90288 6.74315 9.90288C6.50914 9.90288 6.17288 9.88909 5.73753 9.85938C5.29902 9.83397 4.82467 9.76394 4.31026 9.65369C3.02003 9.34293 2.00598 8.82329 1.27232 8.08095C0.463809 7.24211 0.106465 6.21133 0.190794 4.98542V4.96208C0.230851 4.3767 0.365777 3.82525 0.595574 3.30561C0.826424 2.7881 1.15425 2.3374 1.58222 1.9482C2.29269 1.26313 3.19923 0.778492 4.31026 0.502768C5.01863 0.318245 5.76599 0.230225 6.5492 0.230225C7.32924 0.230225 8.09874 0.32885 8.84611 0.523978C9.70835 0.730771 10.4536 1.03937 11.0851 1.43917C11.7143 1.85063 12.2108 2.31513 12.5745 2.84749L9.61986 4.73408C9.53337 4.60576 9.36051 4.46047 9.09698 4.29186C8.83451 4.1243 8.46557 3.98644 7.99439 3.87297C7.5369 3.76268 7.05623 3.70435 6.55974 3.69694C6.06009 3.68632 5.60893 3.74147 5.20204 3.85176C4.84364 3.93554 4.56431 4.04053 4.35981 4.1646C4.15953 4.29186 4.00984 4.4223 3.90338 4.55486C3.80113 4.68742 3.73261 4.81255 3.70521 4.93239C3.6778 5.0501 3.66515 5.136 3.66515 5.19433C3.66515 5.34385 3.68412 5.46369 3.7189 5.54004C3.75369 5.61427 3.78848 5.67578 3.8317 5.71714C4.03935 5.925 4.41462 6.09468 4.95327 6.2283C5.49719 6.36298 6.09276 6.42661 6.74315 6.42661C8.07766 6.42661 9.25088 6.60583 10.2734 6.9632C11.2905 7.32059 12.1138 7.83068 12.7378 8.49984C13.1395 8.94737 13.4357 9.44575 13.6339 9.99934C13.8279 10.5498 13.89 11.1362 13.8226 11.7693C13.7383 12.675 13.4252 13.4883 12.8823 14.2053C12.3436 14.9264 11.6026 15.5149 10.657 15.973C10.0784 16.2573 9.44695 16.4715 8.77337 16.6231C8.10296 16.7769 7.44519 16.8532 6.80851 16.8532Z" fill="#8F959C"/>
<path fill-rule="evenodd" clip-rule="evenodd" d="M31.1152 5.14985L29.1809 9.63252H33.0705L31.1152 5.14985ZM27.6609 13.1893L26.164 16.6444H22.3113L29.2842 0.459351H32.9652L39.9613 16.6444H36.0917L34.6117 13.1893H27.6609Z" fill="#8F959C"/>
<path fill-rule="evenodd" clip-rule="evenodd" d="M54.0297 4.02092V7.11858H60.8319V10.6722H54.0297V16.6438H50.4899V0.459839H61.1059V4.02092H54.0297Z" fill="#8F959C"/>
<path fill-rule="evenodd" clip-rule="evenodd" d="M79.4192 5.14985L77.4828 9.63252H81.3746L79.4192 5.14985ZM75.9637 13.1893L74.4637 16.6444H70.6141L77.587 0.459351H81.2691L88.261 16.6444H84.3914L82.9156 13.1893H75.9637Z" fill="#8F959C"/>
<path fill-rule="evenodd" clip-rule="evenodd" d="M102.311 8.83362H104.705H104.725C105.71 8.86331 106.472 8.60562 107.012 8.06053C107.483 7.58544 107.719 6.96612 107.719 6.19621C107.719 4.74654 106.714 4.02117 104.705 4.02117H102.311V8.83362ZM111.427 16.644H109.887H107.095L104.141 12.3969H102.311V16.644H98.7708V0.460083H104.705C105.618 0.460083 106.455 0.573554 107.21 0.804738C107.968 1.03486 108.637 1.3774 109.22 1.82173C109.539 2.08898 109.828 2.37637 110.083 2.68709C110.339 3.00523 110.553 3.3414 110.717 3.70621C111.078 4.474 111.261 5.30435 111.261 6.19621C111.261 7.04778 111.105 7.85799 110.802 8.62683C110.508 9.36386 110.072 10.0225 109.49 10.5951C109.03 11.0553 108.525 11.4159 107.971 11.682L111.427 16.644Z" fill="#8F959C"/>
<path fill-rule="evenodd" clip-rule="evenodd" d="M129.011 3.56108C128.33 3.56108 127.693 3.69047 127.085 3.95664C126.484 4.21964 125.959 4.57702 125.515 5.02455C125.069 5.47207 124.716 5.99701 124.453 6.60572C124.189 7.21126 124.058 7.85814 124.058 8.54003C124.058 9.2251 124.189 9.87197 124.453 10.4775C124.716 11.0862 125.069 11.6112 125.515 12.0598C125.959 12.5051 126.484 12.8615 127.085 13.1266C127.693 13.3928 128.33 13.5243 129.011 13.5243C129.689 13.5243 130.33 13.3928 130.936 13.1266C131.537 12.8615 132.063 12.5051 132.504 12.0598C132.951 11.6112 133.304 11.0862 133.568 10.4775C133.831 9.87197 133.965 9.2251 133.965 8.54003C133.965 7.85814 133.831 7.21126 133.568 6.60572C133.304 5.99701 132.951 5.47207 132.504 5.02455C132.063 4.57702 131.537 4.21964 130.936 3.95664C130.33 3.69047 129.689 3.56108 129.011 3.56108ZM129.011 17.0854C127.859 17.0854 126.757 16.8616 125.701 16.4141C124.676 15.9708 123.774 15.3621 122.998 14.59C122.231 13.8096 121.629 12.9071 121.184 11.872C120.741 10.8127 120.518 9.69919 120.518 8.54004C120.518 7.41063 120.741 6.30243 121.184 5.21649C121.407 4.70959 121.669 4.23449 121.966 3.77849C122.262 3.32566 122.607 2.90359 122.998 2.51333C123.399 2.10611 123.827 1.75615 124.276 1.45604C124.729 1.1538 125.2 0.891863 125.701 0.670223C126.757 0.224822 127.859 0 129.011 0C130.135 0 131.239 0.224822 132.318 0.670223C132.821 0.891863 133.293 1.1538 133.745 1.45604C134.196 1.75615 134.616 2.10611 135.003 2.51333C135.405 2.90359 135.756 3.32566 136.055 3.77849C136.352 4.23449 136.612 4.70959 136.836 5.21649C137.28 6.30243 137.504 7.41063 137.504 8.54004C137.504 9.69919 137.28 10.8127 136.836 11.872C136.612 12.3737 136.352 12.853 136.055 13.3037C135.756 13.7587 135.405 14.1892 135.003 14.59C134.616 14.9813 134.196 15.3303 133.745 15.6293C133.293 15.9316 132.821 16.1914 132.318 16.4141C131.239 16.8616 130.135 17.0854 129.011 17.0854Z" fill="#8F959C"/>
<path fill-rule="evenodd" clip-rule="evenodd" d="M151.133 4.02092V7.11858H157.94V10.6722H151.133V16.6438H147.595V0.459839H158.209V4.02092H151.133Z" fill="#8F959C"/>
<path fill-rule="evenodd" clip-rule="evenodd" d="M172.925 4.02092V7.11858H179.726V10.6722H172.925V16.6438H169.385V0.459839H180.001V4.02092H172.925Z" fill="#8F959C"/>
</g>
<defs>
<clipPath id="clip0_3465_36794">
<rect width="180" height="30" fill="white"/>
</clipPath>
</defs>
</svg>
