<svg width="12" height="12" viewBox="0 0 12 12" fill="none" xmlns="http://www.w3.org/2000/svg">
<path fill-rule="evenodd" clip-rule="evenodd" d="M3.38462 11.3335C8.21529 11.3335 11.01 7.58281 11.01 4.02348C11.01 3.92548 11.6966 3.33614 11.9906 2.10748C12.0506 1.85814 11.808 1.66148 11.5793 1.76614C10.9926 2.03548 10.3973 1.82214 10.1386 1.51548C9.14395 0.43081 7.48062 0.37881 6.42262 1.39881C5.74062 2.05681 5.45129 3.03681 5.66262 3.97214C3.42862 4.13148 1.89462 3.07281 0.633287 1.62148C0.470621 1.43281 0.168621 1.53214 0.134621 1.78148C-0.052046 3.16948 -0.110712 6.54414 3.23329 8.48214C2.65262 9.31681 1.51595 9.80948 0.250621 10.0208C-0.0293793 10.0681 -0.096046 10.4561 0.159954 10.5815C1.16262 11.0748 2.26462 11.3328 3.38462 11.3315" fill="#535861"/>
</svg>
